<svg width="100" height="100" viewBox="0 0 100 100" fill="none" xmlns="http://www.w3.org/2000/svg">
<path d="M68.8777 34.2441H31.1224C29.7324 34.2441 28.6055 35.3709 28.6055 36.7613C28.6053 38.1513 29.7324 39.2784 31.1224 39.2784H68.8777C70.2677 39.2784 71.3949 38.1515 71.3949 36.7613C71.3945 35.3709 70.2677 34.2441 68.8777 34.2441Z" fill="#163074"/>
<path d="M68.8777 44.0947H31.1224C29.7324 44.0947 28.6055 45.2215 28.6055 46.6119C28.6053 48.0019 29.7324 49.129 31.1224 49.129H68.8777C70.2677 49.129 71.3949 48.0023 71.3949 46.6119C71.3945 45.2217 70.2677 44.0947 68.8777 44.0947Z" fill="#163074"/>
<path d="M68.8777 53.9453H31.1224C29.7324 53.9453 28.6055 55.072 28.6055 56.4623C28.6053 57.8525 29.7324 58.9796 31.1224 58.9796H68.8777C70.2677 58.9796 71.3949 57.8527 71.3949 56.4625C71.3945 55.072 70.2677 53.9453 68.8777 53.9453Z" fill="#163074"/>
<path d="M31.1224 29.4276H68.8777C70.2677 29.4276 71.3949 28.3009 71.3949 26.9107C71.3945 25.5205 70.2677 24.3936 68.8777 24.3936H31.1224C29.7324 24.3936 28.6055 25.5205 28.6055 26.9105C28.6053 28.3007 29.7324 29.4276 31.1224 29.4276Z" fill="#163074"/>
<path d="M78.0354 0H49.9997H21.9638C15.4126 0 10.1016 5.31367 10.1016 11.8682V88.1316C10.1016 94.6863 15.4124 100 21.9638 100H49.9997H62.8214L66.9014 95.9184L85.816 76.9957L89.8977 72.9122V11.8682C89.8975 5.31367 84.5867 0 78.0354 0ZM85.8158 72.9125H71.784C66.8342 72.9125 62.8214 76.8886 62.8214 81.7935V95.9184H49.9997H21.9638C17.6736 95.9184 14.1832 92.4253 14.1832 88.1318V11.8682C14.1832 7.69796 17.4758 4.28367 21.5961 4.09102V8.33633C20.3309 9.0502 19.4752 10.4047 19.4752 11.9608C19.4752 14.2592 21.3385 16.1227 23.6369 16.1227C25.9352 16.1227 27.7985 14.2592 27.7985 11.9608C27.7985 10.4047 26.9428 9.05 25.6777 8.33612V4.08163H39.1712V8.33633C37.906 9.0502 37.0503 10.4047 37.0503 11.9608C37.0503 14.2592 38.9136 16.1227 41.212 16.1227C43.5103 16.1227 45.3734 14.2592 45.3734 11.9608C45.3734 10.4047 44.5177 9.0502 43.2526 8.33633V4.08163H49.9995H56.7463V8.33633C55.4812 9.0502 54.6254 10.4047 54.6254 11.9608C54.6254 14.2592 56.4885 16.1227 58.7869 16.1227C61.0852 16.1227 62.9485 14.2592 62.9485 11.9608C62.9485 10.4047 62.0928 9.0502 60.8277 8.33633V4.08163H74.3212V8.33633C73.056 9.0502 72.2003 10.4047 72.2003 11.9608C72.2003 14.2592 74.0636 16.1227 76.362 16.1227C78.6603 16.1227 80.5236 14.2592 80.5236 11.9608C80.5236 10.4047 79.6679 9.0502 78.4028 8.33633V4.09102C82.5232 4.28367 85.8158 7.69816 85.8158 11.8682V72.9125Z" fill="#163074"/>
<path d="M41.0349 81.0553L44.893 76.3226C46.3175 74.5757 46.0557 72.0045 44.3085 70.58C42.5612 69.1555 39.9902 69.4173 38.5659 71.1647L35.7689 74.5955L32.972 71.1647C31.5477 69.4169 28.9763 69.1555 27.2293 70.58C25.482 72.0042 25.2204 74.5755 26.6449 76.3226L30.503 81.0553L26.6449 85.7881C25.2204 87.5351 25.4822 90.1063 27.2293 91.5308C27.9869 92.1483 28.8993 92.4492 29.8061 92.4492C30.9906 92.4492 32.1653 91.9357 32.972 90.9461L35.7691 87.5149L38.5663 90.9461C39.373 91.9361 40.5477 92.4492 41.7322 92.4492C42.6387 92.4492 43.5514 92.1481 44.3087 91.5308C46.0561 90.1063 46.3177 87.5353 44.8932 85.7881L41.0349 81.0553Z" fill="#163074"/>
</svg>
