<svg width="103" height="103" viewBox="0 0 103 103" fill="none" xmlns="http://www.w3.org/2000/svg">
<path d="M70.3479 89.5736C69.7338 88.0884 68.0317 87.3835 66.5477 87.9977C65.063 88.6124 64.357 90.3139 64.9723 91.7991L66.8294 96.2866C67.4441 97.7718 69.1468 98.4761 70.6302 97.8614C72.1149 97.2472 72.8203 95.5451 72.2062 94.0611L70.3479 89.5736Z" fill="#163074"/>
<path d="M32.5521 13.5264C33.016 14.6468 34.0998 15.324 35.2408 15.324C37.3054 15.324 38.7223 13.2194 37.9284 11.301L36.0707 6.81352C35.456 5.3289 33.7545 4.62402 32.2698 5.23873C30.7852 5.85285 30.0797 7.55495 30.695 9.03899L32.5521 13.5264Z" fill="#163074"/>
<path d="M66.5477 15.1021C68.0335 15.7168 69.7344 15.0107 70.3479 13.5267L72.2062 9.03924C72.8203 7.5552 72.1149 5.8531 70.6302 5.23898C69.1456 4.62367 67.4441 5.32915 66.8294 6.81377L64.9723 11.3012C64.357 12.7859 65.063 14.4874 66.5477 15.1021Z" fill="#163074"/>
<path d="M36.3496 87.9977C34.865 87.3835 33.1629 88.0884 32.5487 89.5736L30.6905 94.0611C30.0763 95.5451 30.7818 97.2472 32.2664 97.8614C33.751 98.4767 35.4526 97.77 36.0673 96.2866L37.9244 91.7991C38.5397 90.3139 37.8348 88.613 36.3496 87.9977Z" fill="#163074"/>
<path d="M95.7036 66.7328L91.7 65.0731C90.2154 64.4578 88.5133 65.1621 87.8986 66.6468C87.2827 68.1314 87.9876 69.8329 89.471 70.4482L93.4752 72.1079C94.9622 72.7237 96.6625 72.0171 97.2773 70.5342C97.8926 69.0508 97.1883 67.3481 95.7036 66.7328Z" fill="#163074"/>
<path d="M7.19461 36.3671L11.1994 38.0268C12.6846 38.6421 14.3855 37.936 15.0008 36.4532C15.6155 34.9686 14.9112 33.267 13.4272 32.6517L9.42243 30.9921C7.93839 30.3768 6.2357 31.0811 5.62099 32.5657C5.00569 34.0491 5.70998 35.7518 7.19461 36.3671Z" fill="#163074"/>
<path d="M91.7006 38.0268L95.7042 36.3671C97.1883 35.7518 97.8932 34.0491 97.2773 32.5657C96.662 31.0811 94.9605 30.3768 93.4758 30.9921L89.4716 32.6517C87.9876 33.2671 87.2833 34.9686 87.898 36.4532C88.5139 37.9378 90.216 38.6421 91.7006 38.0268Z" fill="#163074"/>
<path d="M11.1994 65.0731L7.19461 66.7327C5.70998 67.348 5.00569 69.0495 5.62099 70.5342C6.23688 72.0188 7.93839 72.7231 9.42302 72.1078L13.4272 70.4481C14.9112 69.8328 15.6155 68.1313 15.0008 66.6467C14.3849 65.1626 12.6834 64.4578 11.1994 65.0731Z" fill="#163074"/>
<path d="M54.2132 44.7172V37.3554C54.2132 35.899 53.6763 35.2778 52.415 35.2778C51.1744 35.2778 50.6445 35.899 50.6445 37.3554V44.7172C50.6445 46.1723 51.1744 46.7924 52.415 46.7924C53.6763 46.7924 54.2132 46.1723 54.2132 44.7172Z" fill="#163074"/>
<path d="M31.9 67.3378V61.7075C31.9 60.5848 31.4675 60.082 30.4944 60.082H29.1094V68.9609H30.4944C31.4675 68.9609 31.9 68.4605 31.9 67.3378Z" fill="#163074"/>
<path d="M58 65.9609H59.7357L58.8693 62.7759L58 65.9609Z" fill="#163074"/>
<path d="M98.6619 49.2987L84.6131 37.8125L86.426 19.7583C86.6093 17.9295 85.0699 16.3901 83.2411 16.5734L65.1869 18.3863L53.7012 4.33743C52.5313 2.90409 50.3489 2.92177 49.1979 4.33743L37.7116 18.3863L19.6574 16.5734C17.8286 16.3901 16.2892 17.9295 16.4725 19.7583L18.2854 37.8125L4.23657 49.2987C2.81206 50.4568 2.81147 52.6428 4.23657 53.8021L18.2854 65.2878L16.4725 83.3419C16.2892 85.1708 17.8286 86.7102 19.6574 86.5269L37.7116 84.714L49.1979 98.7628C50.3507 100.181 52.5331 100.194 53.7012 98.7628L65.1869 84.714L83.2411 86.5269C85.0699 86.7102 86.6093 85.1708 86.426 83.3419L84.6131 65.2878L98.6619 53.8021C100.086 52.6434 100.087 50.4574 98.6619 49.2987ZM61.3878 72.0007L60.7531 69.6685H57.0064L56.3782 71.9806C55.7475 73.9963 51.5559 72.7763 52.0758 70.7023L56.1253 57.4173C56.7424 55.4076 60.98 55.3633 61.61 57.4149H61.6124L65.6772 70.6758C66.2047 72.7993 62.0043 73.981 61.3878 72.0007ZM46.2204 62.6574C48.2938 62.6574 48.3285 66.3639 46.2204 66.3639H43.5093V68.9607H48.7859C50.8923 68.9607 50.8734 73.0162 48.7859 73.0162H41.0463C40.0703 73.0162 39.0188 72.5182 39.0188 71.4243V57.6206C39.0188 56.525 40.0703 56.0264 41.0463 56.0264H48.7859C50.9159 56.0264 50.8575 60.0818 48.7859 60.0818H43.5093V62.6574H46.2204ZM26.6432 56.0264H30.4912C34.2945 56.0264 36.3897 58.0432 36.3897 61.7073V67.3376C36.3897 70.9993 34.2945 73.0162 30.4912 73.0162H26.6432C25.313 73.0162 24.6158 72.2276 24.6158 71.4455V57.5976C24.6158 56.8173 25.313 56.0264 26.6432 56.0264ZM36.903 49.7738V42.9465H32.7798V49.7738C32.7798 52.4908 27.0405 52.4884 27.0405 49.7738V32.1033C27.0405 29.4305 32.7798 29.3975 32.7798 32.1033V38.208H36.903V32.1033C36.903 29.4305 42.6417 29.3916 42.6417 32.1033V49.7738C42.6417 52.5061 36.903 52.4613 36.903 49.7738ZM44.9037 44.717V37.3551C44.9037 32.6732 47.5706 30.0959 52.4129 30.0959C57.274 30.0959 59.9503 32.6732 59.9503 37.3551V44.717C59.9503 49.3972 57.274 51.9768 52.4129 51.9768C47.5706 51.9768 44.9037 49.3972 44.9037 44.717ZM62.6384 30.0959H74.6404C77.3344 30.0959 77.3185 35.3902 74.6404 35.3902H71.5079V49.7738C71.5079 52.4878 65.7686 52.4908 65.7686 49.7738V35.3902H62.6384C59.968 35.3902 59.9397 30.0959 62.6384 30.0959ZM76.748 68.9607C78.7949 68.9607 78.7925 73.0162 76.748 73.0162H69.8806C68.9029 73.0162 67.8514 72.5182 67.8514 71.4243V57.5976C67.8514 55.5048 72.3418 55.4812 72.3418 57.5976V68.9607H76.748Z" fill="#163074"/>
</svg>
