<svg width="103" height="103" viewBox="0 0 103 103" fill="none" xmlns="http://www.w3.org/2000/svg">
<g clip-path="url(#clip0)">
<path d="M85.6001 8.26318C77.73 8.26318 71.5117 14.5787 71.5117 22.4487C71.5117 30.3188 77.8272 36.5371 85.6001 36.5371C93.373 36.5371 99.7856 30.2216 99.7856 22.3515C99.7856 14.4815 93.4701 8.26318 85.6001 8.26318ZM85.6001 33.4279C79.4789 33.4279 74.5237 28.4727 74.5237 22.3515C74.5237 16.2304 79.5761 11.3723 85.6001 11.3723C91.7212 11.3723 96.6764 16.3276 96.6764 22.4487C96.6764 28.5699 91.7212 33.4279 85.6001 33.4279Z" fill="#163074"/>
<path d="M90.0672 24.5864C89.9701 24.2949 89.9701 24.1005 89.7758 23.8091C89.6786 23.6147 89.5814 23.3233 89.3871 23.1289C89.1928 22.9346 89.0956 22.7403 88.9013 22.546C88.707 22.3516 88.5127 22.1573 88.2212 22.0602C88.0269 21.8658 87.7354 21.7687 87.541 21.6715C87.2496 21.5744 87.0552 21.38 86.7638 21.2829C86.4723 21.1857 86.1808 21.0886 85.9865 20.9914C85.8893 20.9914 85.695 20.8942 85.5978 20.7971C85.5007 20.6999 85.3063 20.6999 85.2092 20.6027C85.112 20.5056 84.9177 20.5056 84.8205 20.4084C84.7234 20.3113 84.6262 20.2141 84.529 20.1169C84.4319 20.0198 84.3347 19.9226 84.3347 19.7283C84.2376 19.6311 84.2376 19.4368 84.2376 19.3397C84.2376 19.1453 84.2376 19.0482 84.2376 18.8538C84.2376 18.7567 84.3347 18.5624 84.3347 18.4652C84.4319 18.368 84.4319 18.1737 84.529 18.0766C84.6262 17.9794 84.7234 17.8822 84.8205 17.7851C84.9177 17.6879 85.112 17.5908 85.3063 17.5908C85.5007 17.4936 85.5978 17.4936 85.7921 17.4936C85.8893 17.4936 85.9865 17.4936 86.0836 17.4936C86.1808 17.4936 86.278 17.4936 86.3751 17.4936C86.5694 17.4936 86.6666 17.4936 86.8609 17.5908C87.0552 17.5908 87.2496 17.6879 87.3467 17.6879C87.4439 17.6879 87.6382 17.7851 87.7354 17.7851C87.9297 17.7851 88.0268 17.8822 88.124 17.8822L88.6098 18.0766L88.707 17.4936L88.9013 15.939V15.5504L88.5127 15.4532C88.4155 15.4532 88.2212 15.3561 88.124 15.3561C88.0268 15.3561 87.9297 15.2589 87.7354 15.2589C87.6382 15.2589 87.4439 15.1617 87.2496 15.1617C87.0552 15.1617 86.9581 15.0646 86.7638 15.0646H86.6666V13.7043V13.2185H86.1808H84.8205H84.3347V13.7043V15.1617H84.2376C83.9461 15.2589 83.6546 15.356 83.3631 15.5504C83.0716 15.6475 82.8773 15.8419 82.683 16.0362C82.4887 16.2305 82.2943 16.4248 82.1 16.7163C81.9057 16.9106 81.8085 17.2021 81.7114 17.4936C81.6142 17.7851 81.5171 18.0766 81.4199 18.368C81.3227 18.6595 81.3227 19.0482 81.3227 19.3397C81.3227 19.6311 81.3227 19.8255 81.4199 20.1169C81.5171 20.4084 81.5171 20.6027 81.7114 20.8942C81.8085 21.0886 82.0029 21.38 82.1 21.5744C82.2943 21.7687 82.3915 21.963 82.5858 22.1573C82.7801 22.3516 82.9745 22.546 83.266 22.6431C83.4603 22.8375 83.7518 22.9346 83.9461 23.0318C84.2376 23.1289 84.529 23.3233 84.7234 23.4204C85.0149 23.5176 85.3063 23.6147 85.5007 23.7119C85.5978 23.7119 85.7921 23.8091 85.8893 23.9062C85.9865 24.0034 86.1808 24.0034 86.278 24.1005C86.3751 24.1977 86.4723 24.2949 86.5694 24.2949C86.6666 24.392 86.7638 24.4892 86.8609 24.5864C86.9581 24.6835 86.9581 24.7807 87.0552 24.975C87.0552 25.0722 87.1524 25.2665 87.1524 25.4608C87.1524 25.6551 87.1524 25.7523 87.1524 25.9466C87.1524 26.0438 87.0552 26.2381 86.9581 26.3352C86.8609 26.4324 86.7638 26.5296 86.6666 26.6267C86.5694 26.7239 86.4723 26.8211 86.278 26.9182C86.1808 27.0154 85.9865 27.0154 85.8893 27.1125C85.7921 27.1125 85.5978 27.2097 85.4035 27.2097C85.3063 27.2097 85.2092 27.2097 85.0149 27.2097C84.9177 27.2097 84.7234 27.2097 84.6262 27.2097C84.4319 27.2097 84.2376 27.2097 84.1404 27.2097C83.9461 27.2097 83.7518 27.1125 83.6546 27.1125C83.4603 27.1125 83.266 27.0154 83.0716 26.9182C82.8773 26.8211 82.683 26.8211 82.4887 26.7239C82.3915 26.7239 82.2943 26.6267 82.1972 26.6267C82.1 26.6267 82.0029 26.5296 81.9057 26.5296L81.3227 26.2381L81.2256 26.9182L81.0312 28.6671V28.9586L81.3227 29.0558C81.7114 28.9586 81.9057 29.0558 82.1972 29.1529C82.3915 29.2501 82.683 29.3472 82.8773 29.3472C83.0716 29.4444 83.3631 29.4444 83.6546 29.5416C83.9461 29.6387 84.1404 29.6387 84.4319 29.6387H84.6262V31.0961V31.5819H85.112H86.4723H86.9581V31.0961V29.5416H87.0552C87.3467 29.4444 87.6382 29.3472 87.9297 29.1529C88.2212 29.0558 88.4155 28.8614 88.707 28.6671C88.9013 28.4728 89.0956 28.2785 89.2899 27.987C89.4843 27.7927 89.5814 27.5012 89.7758 27.2097C89.8729 26.9182 89.9701 26.6267 90.0672 26.3352C90.1644 26.0438 90.1644 25.7523 90.1644 25.3636C90.1644 25.0722 90.1644 24.8778 90.0672 24.5864Z" fill="#163074"/>
<path d="M78.7982 38.3832C78.3124 37.7031 77.2436 37.6059 76.5635 38.0917L60.8234 50.6255L40.5167 42.1725C40.0309 41.9782 39.448 42.0753 39.0593 42.3668L17.2952 57.9126C16.6151 58.3984 16.4208 59.37 16.9066 60.0501C17.1981 60.5359 17.6839 60.7303 18.1697 60.7303C18.4612 60.7303 18.7526 60.6331 19.0441 60.4388L40.1281 45.3788L60.5319 53.8318C61.0177 54.0261 61.6978 53.929 62.0865 53.6375L78.5067 40.6179C79.1869 40.1321 79.284 39.0633 78.7982 38.3832Z" fill="#163074"/>
<path d="M101.533 91.6276H94.3435V46.642C94.3435 45.7675 93.6633 45.0874 92.7889 45.0874H78.5062C77.6317 45.0874 76.9516 45.7675 76.9516 46.642V91.6276H71.7049V62.1878C71.7049 61.3133 71.0248 60.6332 70.1503 60.6332H55.7705C54.896 60.6332 54.2159 61.3133 54.2159 62.1878V91.6276H48.9692V59.8559C48.9692 58.9814 48.2891 58.3013 47.4146 58.3013H33.1319C32.2575 58.3013 31.5774 58.9814 31.5774 59.8559V91.6276H26.3307V68.989C26.3307 68.1146 25.6505 67.4345 24.7761 67.4345H10.3962C9.52179 67.4345 8.84166 68.1146 8.84166 68.989V91.6276H1.55458C0.680128 91.6276 0 92.3077 0 93.1822C0 94.0566 0.680128 94.7367 1.55458 94.7367H10.2991H24.5818H33.1319H47.4146H55.7705H70.0532H78.409H92.6917H101.436C102.311 94.7367 102.991 94.0566 102.991 93.1822C103.088 92.3077 102.408 91.6276 101.533 91.6276ZM23.1243 91.6276H11.9508V70.5436H23.1243V91.6276ZM45.8601 91.6276H34.6865V61.4105H45.8601V91.6276ZM68.4986 91.6276H57.3251V63.7423H68.4986V91.6276ZM91.2343 91.6276H80.0608V48.1966H91.2343V91.6276Z" fill="#163074"/>
</g>
<defs>
<clipPath id="clip0">
<rect width="103" height="103" fill="white"/>
</clipPath>
</defs>
</svg>
