<svg width="103" height="103" viewBox="0 0 103 103" fill="none" xmlns="http://www.w3.org/2000/svg">
<g clip-path="url(#clip0)">
<path d="M95.652 35.5881C95.2355 32.457 95.1768 27.0642 98.085 25.2534C98.1369 25.2202 98.1757 25.1722 98.2212 25.131C100.599 24.3705 102.244 23.3033 100.953 21.8671L65.8789 11.2991L9.0866 19.195C9.0866 19.195 2.58317 20.1246 3.16413 30.2285C3.47952 35.7277 5.20428 38.4284 6.71264 39.7576L2.05231 41.162C0.758813 42.5982 2.40396 43.6657 4.78192 44.425C4.82711 44.4674 4.86523 44.515 4.9181 44.5482C7.82446 46.3606 7.76852 51.7529 7.35047 54.8845C-3.09062 57.8493 0.657375 58.8154 0.657375 58.8154L2.94773 59.3697C1.33671 60.8255 -0.263256 63.5861 0.0364489 68.8219C0.617722 78.924 5.95953 79.6212 5.95953 79.6212L43.1241 91.701L99.2196 78.1137C99.2196 78.1137 102.969 77.146 92.5249 74.181C92.105 71.0542 92.0466 65.6626 94.9598 63.8456C95.0133 63.8133 95.0523 63.7644 95.0956 63.7239C97.4736 62.9634 99.1175 61.897 97.8256 60.4609L95.3874 59.7247C97.0134 58.7441 99.456 56.1814 99.8387 49.5246C100.103 44.9457 98.9082 42.264 97.5255 40.6853L102.345 39.519C102.345 39.5209 106.094 38.5532 95.652 35.5881ZM48.7315 35.4587L58.1647 33.52L90.0434 26.9689L94.7929 25.992C93.2753 28.7696 93.3389 32.5708 93.59 35.0139C93.6451 35.5666 93.7084 36.0713 93.7699 36.455L88.5713 37.7475L48.335 47.7571L48.7315 35.4587ZM8.21054 45.29L12.9594 46.2669L43.5744 52.5604L46.249 53.1081L54.2697 54.7567L54.6654 67.0553L13.3111 56.7667L9.23415 55.7535C9.29409 55.3693 9.35741 54.8652 9.41489 54.311C9.66449 51.8697 9.72935 48.0676 8.21054 45.29ZM6.36559 29.7422C6.30811 27.0547 6.78702 25.111 7.75499 24.1231C8.371 23.4923 9.09797 23.3611 9.59656 23.3611C9.85999 23.3611 10.0497 23.3976 10.0626 23.3976L34.5329 31.3753L46.7415 35.3557L46.3409 47.7402L12.091 38.1379L10.2836 37.6317C10.2172 37.6129 10.1271 37.6 10.0576 37.5969C9.91655 37.5868 6.53035 37.2751 6.36559 29.7422ZM43.2126 86.3355L7.1562 76.2266C7.08949 76.2073 7.00035 76.1944 6.93088 76.191C6.78733 76.1815 3.39959 75.8701 3.23576 68.339C3.17735 65.6481 3.65872 63.7063 4.62485 62.7175C5.24239 62.0867 5.96968 61.9554 6.46734 61.9554C6.73139 61.9554 6.92043 61.9908 6.93426 61.9908C6.93426 61.9908 6.9358 61.9908 6.93426 61.9908L43.6107 73.9507L43.2126 86.3355ZM90.4599 73.6074C90.5168 74.1619 90.5801 74.6657 90.6416 75.0499L45.2058 86.353L45.6029 74.0543L55.3167 72.0572L56.7513 72.4042L62.1281 70.6567L86.9132 65.5636L91.6646 64.5861C90.1454 67.3634 90.2085 71.1661 90.4599 73.6074ZM92.9627 56.893C92.88 56.8949 92.7973 56.9059 92.7195 56.9305L89.2927 57.8899L56.664 67.0391L56.265 54.6546L66.9701 51.163L92.8913 42.7094C92.8947 42.7079 94.2549 42.4057 95.2533 43.421C96.2198 44.409 96.6993 46.3526 96.6427 49.0401C96.4737 56.5706 93.0859 56.8835 92.9627 56.893Z" fill="#163074"/>
</g>
<defs>
<clipPath id="clip0">
<rect width="103" height="103" fill="white"/>
</clipPath>
</defs>
</svg>
