<svg width="103" height="103" viewBox="0 0 103 103" fill="none" xmlns="http://www.w3.org/2000/svg">
<g clip-path="url(#clip0)">
<path d="M1.50879 75.2045C2.34177 75.2045 3.01758 74.5295 3.01758 73.6957V29.7514H92.1627V46.3363C92.1627 47.1701 92.8385 47.8451 93.6714 47.8451C94.5052 47.8451 95.1802 47.1701 95.1802 46.3363V16.5181C95.1802 11.4597 91.0648 7.34435 86.0073 7.34435H82.0506V5.47565C82.0506 3.4545 80.4067 1.81055 78.3855 1.81055H75.5825C73.5621 1.81055 71.9182 3.4545 71.9182 5.47565V7.34435H61.9114V5.47565C61.9114 3.4545 60.2675 1.81055 58.2463 1.81055H55.4433C53.4229 1.81055 51.779 3.4545 51.779 5.47565V7.34435H41.7715V5.47565C41.7715 3.4545 40.1275 1.81055 38.1064 1.81055H35.3041C33.2829 1.81055 31.639 3.4545 31.639 5.47565V7.34435H21.6323V5.47565C21.6323 3.4545 19.9883 1.81055 17.9672 1.81055H15.1649C13.1438 1.81055 11.4998 3.4545 11.4998 5.47565V7.34435H9.17375C4.11538 7.34435 0 11.4597 0 16.5181V73.6957C0 74.5295 0.675812 75.2045 1.50879 75.2045ZM74.9357 5.47565C74.9357 5.11888 75.2265 4.82812 75.5833 4.82812H78.3863C78.7431 4.82812 79.033 5.11888 79.033 5.47565V12.8058C79.033 13.1626 78.7431 13.4534 78.3863 13.4534H75.5833C75.2265 13.4534 74.9357 13.1634 74.9357 12.8058V5.47565ZM54.7965 5.47565C54.7965 5.11888 55.0865 4.82812 55.4433 4.82812H58.2463C58.6031 4.82812 58.8939 5.11888 58.8939 5.47565V12.8058C58.8939 13.1626 58.6031 13.4534 58.2463 13.4534H55.4433C55.0865 13.4534 54.7965 13.1634 54.7965 12.8058V5.47565ZM34.6566 5.47565C34.6566 5.11888 34.9473 4.82812 35.3041 4.82812H38.1071C38.4639 4.82812 38.7547 5.11888 38.7547 5.47565V12.8058C38.7547 13.1626 38.4639 13.4534 38.1071 13.4534H35.3041C34.9473 13.4534 34.6566 13.1634 34.6566 12.8058V5.47565ZM14.5174 5.47565C14.5174 5.11888 14.8081 4.82812 15.1649 4.82812H17.9679C18.3247 4.82812 18.6147 5.11888 18.6147 5.47565V12.8058C18.6147 13.1626 18.3247 13.4534 17.9679 13.4534H15.1649C14.8081 13.4534 14.5174 13.1634 14.5174 12.8058V5.47565ZM9.17375 10.3619H11.4998V12.8058C11.4998 14.827 13.1438 16.4709 15.1649 16.4709H17.9679C19.9883 16.4709 21.6323 14.827 21.6323 12.8058V10.3619H31.6398V12.8058C31.6398 14.827 33.2837 16.4709 35.3041 16.4709H38.1071C40.1283 16.4709 41.7722 14.827 41.7722 12.8058V10.3619H51.779V12.8058C51.779 14.827 53.4229 16.4709 55.4441 16.4709H58.2471C60.2675 16.4709 61.9114 14.827 61.9114 12.8058V10.3619H71.9182V12.8058C71.9182 14.827 73.5621 16.4709 75.5833 16.4709H78.3863C80.4067 16.4709 82.0506 14.827 82.0506 12.8058V10.3619H86.0073C89.402 10.3619 92.1634 13.1233 92.1634 16.5181V26.7339H3.01758V16.5181C3.01758 13.1233 5.77898 10.3619 9.17375 10.3619Z" fill="#163074"/>
<path d="M17.0815 89.2363H3.92521C3.42464 89.2363 3.01758 88.8293 3.01758 88.3287V80.5718C3.01758 79.738 2.34177 79.063 1.50879 79.063C0.675812 79.063 0 79.738 0 80.5718V88.3287C0 90.4929 1.76104 92.2539 3.92521 92.2539H17.0815C17.9145 92.2539 18.5903 91.5781 18.5903 90.7451C18.5903 89.9113 17.9145 89.2363 17.0815 89.2363Z" fill="#163074"/>
<path d="M17.0307 34.1514H11.7861C10.9532 34.1514 10.2773 34.8272 10.2773 35.6602C10.2773 36.4939 10.9532 37.1689 11.7861 37.1689H17.0307C17.8637 37.1689 18.5395 36.4939 18.5395 35.6602C18.5395 34.8272 17.8637 34.1514 17.0307 34.1514Z" fill="#163074"/>
<path d="M27.9033 37.1689H33.1479C33.9809 37.1689 34.6567 36.4939 34.6567 35.6602C34.6567 34.8272 33.9809 34.1514 33.1479 34.1514H27.9033C27.0703 34.1514 26.3945 34.8272 26.3945 35.6602C26.3945 36.4939 27.0703 37.1689 27.9033 37.1689Z" fill="#163074"/>
<path d="M44.0205 37.1689H49.2643C50.0973 37.1689 50.7731 36.4939 50.7731 35.6602C50.7731 34.8272 50.0973 34.1514 49.2643 34.1514H44.0205C43.1867 34.1514 42.5117 34.8272 42.5117 35.6602C42.5117 36.4939 43.1867 37.1689 44.0205 37.1689Z" fill="#163074"/>
<path d="M60.1377 37.1689H65.3823C66.2153 37.1689 66.8911 36.4939 66.8911 35.6602C66.8911 34.8272 66.2153 34.1514 65.3823 34.1514H60.1377C59.3047 34.1514 58.6289 34.8272 58.6289 35.6602C58.6289 36.4939 59.3047 37.1689 60.1377 37.1689Z" fill="#163074"/>
<path d="M81.4987 34.1514H76.2549C75.4211 34.1514 74.7461 34.8272 74.7461 35.6602C74.7461 36.4939 75.4211 37.1689 76.2549 37.1689H81.4987C82.3317 37.1689 83.0075 36.4939 83.0075 35.6602C83.0075 34.8272 82.3317 34.1514 81.4987 34.1514Z" fill="#163074"/>
<path d="M17.0307 41.7383H11.7861C10.9532 41.7383 10.2773 42.4133 10.2773 43.2471C10.2773 44.0808 10.9532 44.7559 11.7861 44.7559H17.0307C17.8637 44.7559 18.5395 44.0808 18.5395 43.2471C18.5395 42.4133 17.8637 41.7383 17.0307 41.7383Z" fill="#163074"/>
<path d="M27.9033 44.7559H33.1479C33.9809 44.7559 34.6567 44.0808 34.6567 43.2471C34.6567 42.4133 33.9809 41.7383 33.1479 41.7383H27.9033C27.0703 41.7383 26.3945 42.4133 26.3945 43.2471C26.3945 44.0808 27.0703 44.7559 27.9033 44.7559Z" fill="#163074"/>
<path d="M44.0205 44.7559H49.2643C50.0973 44.7559 50.7731 44.0808 50.7731 43.2471C50.7731 42.4133 50.0973 41.7383 49.2643 41.7383H44.0205C43.1867 41.7383 42.5117 42.4133 42.5117 43.2471C42.5117 44.0808 43.1867 44.7559 44.0205 44.7559Z" fill="#163074"/>
<path d="M60.1377 44.7559H65.3823C66.2153 44.7559 66.8911 44.0808 66.8911 43.2471C66.8911 42.4133 66.2153 41.7383 65.3823 41.7383H60.1377C59.3047 41.7383 58.6289 42.4133 58.6289 43.2471C58.6289 44.0808 59.3047 44.7559 60.1377 44.7559Z" fill="#163074"/>
<path d="M81.4987 41.7383H76.2549C75.4211 41.7383 74.7461 42.4133 74.7461 43.2471C74.7461 44.0808 75.4211 44.7559 76.2549 44.7559H81.4987C82.3317 44.7559 83.0075 44.0808 83.0075 43.2471C83.0075 42.4133 82.3317 41.7383 81.4987 41.7383Z" fill="#163074"/>
<path d="M27.9407 74.376L35.6984 82.1337C36.8205 83.2559 38.312 83.8735 39.8994 83.8735C41.4868 83.8735 42.9791 83.2559 44.1004 82.1337L65.3453 60.8889C67.6619 58.5722 67.6619 54.8026 65.3453 52.486C63.0287 50.1694 59.2591 50.1694 56.9424 52.486L39.8994 69.529L36.3428 65.9732C34.0269 63.6565 30.2573 63.6565 27.9399 65.9732C25.6241 68.2898 25.6241 72.0594 27.9407 74.376ZM30.0742 68.1067C30.6439 67.537 31.3928 67.2517 32.1417 67.2517C32.8906 67.2517 33.6395 67.537 34.2092 68.1067L38.8323 72.7297C39.4216 73.3191 40.3764 73.3191 40.9658 72.7297L59.076 54.6203C60.217 53.4801 62.0715 53.4801 63.211 54.6195C64.3512 55.7598 64.3512 57.6151 63.211 58.7553L41.9669 79.9994C41.4145 80.5518 40.6805 80.8559 39.8994 80.8559C39.1183 80.8559 38.3843 80.5518 37.8319 79.9994L30.0742 72.2417C28.934 71.1015 28.934 69.2469 30.0742 68.1067Z" fill="#163074"/>
<path d="M95.1815 65.2521V53.2124C95.1815 52.3786 94.5065 51.7036 93.6727 51.7036C92.8397 51.7036 92.1639 52.3786 92.1639 53.2124V63.3276C89.4127 61.9013 86.2906 61.0943 82.9839 61.0943C71.9461 61.0943 62.9665 70.0739 62.9665 81.1116C62.9665 84.0027 63.5834 86.7515 64.6906 89.2363H23.958C23.125 89.2363 22.4492 89.9113 22.4492 90.7451C22.4492 91.5781 23.125 92.2539 23.958 92.2539H66.3621C69.9588 97.603 76.067 101.129 82.9839 101.129C94.0216 101.129 103.001 92.1494 103.001 81.1116C103.001 74.6616 99.9334 68.9148 95.1815 65.2521ZM82.9839 98.1115C73.6097 98.1115 65.9841 90.4858 65.9841 81.1116C65.9841 71.7375 73.6105 64.1118 82.9839 64.1118C92.3572 64.1118 99.9837 71.7375 99.9837 81.1116C99.9837 90.4858 92.3572 98.1115 82.9839 98.1115Z" fill="#163074"/>
<path d="M82.984 66.2915C74.8122 66.2915 68.1641 72.9404 68.1641 81.1114C68.1641 89.2832 74.8122 95.9314 82.984 95.9314C91.1558 95.9314 97.8031 89.2832 97.8031 81.1114C97.8031 72.9404 91.155 66.2915 82.984 66.2915ZM84.3348 92.8336C84.4346 92.6317 84.4928 92.4053 84.4928 92.1649V90.3268C84.4928 89.4939 83.817 88.818 82.984 88.818C82.151 88.818 81.4752 89.4939 81.4752 90.3268V92.1649C81.4752 92.4053 81.5326 92.6317 81.6331 92.8336C76.2031 92.212 71.8834 87.8923 71.2618 82.4623C71.463 82.5629 71.6901 82.6202 71.9305 82.6202H73.7678C74.6016 82.6202 75.2766 81.9452 75.2766 81.1114C75.2766 80.2777 74.6016 79.6026 73.7678 79.6026H71.9305C71.6901 79.6026 71.463 79.6608 71.2618 79.7606C71.8834 74.3305 76.2031 70.0108 81.6331 69.3892C81.5326 69.5912 81.4752 69.8175 81.4752 70.058V71.896C81.4752 72.7298 82.151 73.4048 82.984 73.4048C83.817 73.4048 84.4928 72.7298 84.4928 71.896V70.058C84.4928 69.8175 84.4346 69.5912 84.3348 69.3892C89.7649 70.0108 94.0846 74.3305 94.7062 79.7606C94.5042 79.6608 94.2779 79.6026 94.0374 79.6026H92.1994C91.3664 79.6026 90.6906 80.2777 90.6906 81.1114C90.6906 81.9452 91.3664 82.6202 92.1994 82.6202H94.0374C94.2779 82.6202 94.5042 82.5629 94.7062 82.4623C94.0838 87.8923 89.7649 92.212 84.3348 92.8336Z" fill="#163074"/>
<path d="M86.3071 79.603H84.4902V78.0557C84.4902 77.2227 83.8144 76.5469 82.9814 76.5469C82.1477 76.5469 81.4727 77.2227 81.4727 78.0557V81.1117C81.4727 81.9455 82.1477 82.6205 82.9814 82.6205H86.3071C87.14 82.6205 87.8159 81.9455 87.8159 81.1117C87.8159 80.278 87.14 79.603 86.3071 79.603Z" fill="#163074"/>
</g>
<defs>
<clipPath id="clip0">
<rect width="103" height="103" fill="white"/>
</clipPath>
</defs>
</svg>
