<svg width="21" height="21" viewBox="0 0 21 21" fill="none" xmlns="http://www.w3.org/2000/svg">
<path d="M20.125 1.12305V19.002C20.125 19.3014 20.0202 19.556 19.8105 19.7656C19.6009 20.0052 19.3314 20.125 19.002 20.125H13.8809V12.3086H16.4863L16.8906 9.29883H13.8809V7.36719C13.8809 6.85807 13.9707 6.4987 14.1504 6.28906C14.39 6.01953 14.7943 5.88477 15.3633 5.88477H16.9805V3.14453C16.3516 3.08464 15.5729 3.05469 14.6445 3.05469C13.4766 3.05469 12.5332 3.39909 11.8145 4.08789C11.0957 4.77669 10.7363 5.76497 10.7363 7.05273V9.29883H8.13086V12.3086H10.7363V20.125H1.12305C0.79362 20.125 0.524089 20.0052 0.314453 19.7656C0.104818 19.556 0 19.3014 0 19.002V1.12305C0 0.79362 0.104818 0.524089 0.314453 0.314453C0.524089 0.104818 0.79362 0 1.12305 0H19.002C19.3014 0 19.556 0.104818 19.7656 0.314453C20.0052 0.524089 20.125 0.79362 20.125 1.12305Z" fill="white"/>
</svg>
