<svg width="103" height="103" viewBox="0 0 103 103" fill="none" xmlns="http://www.w3.org/2000/svg">
<g clip-path="url(#clip0)">
<path d="M66.4075 30.4242L74.5507 35.5303C75.2451 35.968 76.1078 35.4261 76.1078 34.5508V31.362H81.0947C82.1258 31.362 82.9675 32.1957 82.9675 33.2169V46.1595C82.9675 47.2224 83.8302 48.0769 84.9033 48.0769C85.9765 48.0769 86.8392 47.2224 86.8392 46.1595V33.2169C86.8392 30.0907 84.2721 27.5272 81.0947 27.5272H76.1078V24.3385C76.1078 23.4631 75.2451 22.9212 74.5507 23.3589L66.4075 28.4651C65.7131 28.9027 65.7131 29.9865 66.4075 30.4242Z" fill="#163074"/>
<path d="M16.5616 47.7434C17.0034 48.4312 18.0976 48.4312 18.5395 47.7434L23.6948 39.6778C24.1366 38.99 23.5895 38.1355 22.7058 38.1355H19.4864V33.1961C19.4864 32.1748 20.3281 31.3412 21.3591 31.3412H31.4171C32.4903 31.3412 33.353 30.4867 33.353 29.4238C33.353 28.3608 32.4903 27.5063 31.4171 27.5063H21.3591C18.2028 27.5063 15.6147 30.049 15.6147 33.1961V38.1355H12.3953C11.5115 38.1355 10.9644 38.99 11.4063 39.6778L16.5616 47.7434Z" fill="#163074"/>
<path d="M62.0122 81.7151L53.869 76.6089C53.1746 76.1712 52.3119 76.7131 52.3119 77.5885V80.7772H41.9593C40.8862 80.7772 40.0234 81.6317 40.0234 82.6946C40.0234 83.7575 40.8862 84.6121 41.9593 84.6121H52.3119V87.8008C52.3119 88.6761 53.1746 89.218 53.869 88.7803L62.0122 83.6742C62.7066 83.2574 62.7066 82.1527 62.0122 81.7151Z" fill="#163074"/>
<path d="M49.4038 47.8685H50.3297H68.089C67.9838 40.5531 68.2994 36.6349 63.5019 34.9259C59.1462 33.2795 56.558 31.5913 56.558 31.5913L53.2124 42.0954L52.7495 43.5126L51.2555 39.3027C54.7064 34.53 51.003 34.3007 50.3507 34.3007C50.3507 34.3007 50.3507 34.3007 50.3297 34.3007C50.3297 34.3007 50.3297 34.3007 50.3086 34.3007C49.6563 34.3007 45.9529 34.53 49.4038 39.3027L47.9098 43.5126L47.4469 42.0954L44.1013 31.5913C44.1013 31.5913 41.4921 33.2795 37.1574 34.9259C32.3599 36.6558 32.6545 40.5531 32.5703 47.8685H49.4038Z" fill="#163074"/>
<path d="M42.8427 24.943C43.2215 27.4023 45.1363 30.5493 48.3136 31.6539C49.5972 32.1125 51.028 32.1125 52.3116 31.6539C55.4258 30.5493 57.4037 27.4231 57.7825 24.9638C58.2033 24.9221 58.7504 24.3594 59.3396 22.2753C60.1602 19.4408 59.2975 19.024 58.561 19.0865C58.7083 18.6905 58.8135 18.3154 58.8766 17.9194C60.1181 10.5832 56.4568 10.3123 56.4568 10.3123C56.4568 10.3123 55.8466 9.16598 54.2474 8.29064C53.1743 7.66539 51.7014 7.18604 49.7234 7.35277C49.0922 7.37361 48.4819 7.49866 47.9138 7.68623C47.1984 7.93633 46.5251 8.2698 45.9359 8.68663C45.1994 9.14514 44.505 9.70786 43.8948 10.3539C42.9269 11.3335 42.0642 12.6048 41.6854 14.1679C41.3698 15.3559 41.4329 16.5855 41.7065 17.8986C41.7696 18.2945 41.8748 18.6697 42.0221 19.0657C41.2856 19.0032 40.4229 19.42 41.2435 22.2544C41.8748 24.3177 42.4219 24.9013 42.8427 24.943Z" fill="#163074"/>
<path d="M98.4135 81.7565C94.0579 80.11 91.4697 78.4219 91.4697 78.4219L88.103 88.926L87.6401 90.3432L86.1461 86.1332C89.597 81.3605 85.8936 81.1313 85.2413 81.1313C85.2413 81.1313 85.2413 81.1313 85.2203 81.1313C85.2203 81.1313 85.2203 81.1313 85.1992 81.1313C84.5469 81.1313 80.8436 81.3605 84.2944 86.1332L82.8005 90.3432L82.3375 88.926L78.9919 78.4219C78.9919 78.4219 76.3827 80.11 72.0481 81.7565C67.2505 83.4864 67.5451 87.3837 67.4609 94.6991H84.3155H85.2413H103.001C102.895 87.3837 103.19 83.4864 98.4135 81.7565Z" fill="#163074"/>
<path d="M84.6531 54.1418C84.0218 54.1627 83.4116 54.2877 82.8435 54.4753C82.1281 54.7254 81.4547 55.0589 80.8656 55.4757C80.1291 55.9342 79.4347 56.4969 78.8245 57.143C77.8566 58.1226 76.9939 59.3939 76.6151 60.957C76.2995 62.145 76.3626 63.3746 76.6362 64.6876C76.6993 65.0836 76.8045 65.4588 76.9518 65.8547C76.2153 65.7922 75.3526 66.209 76.1732 69.0435C76.7624 71.1068 77.3095 71.6903 77.7303 71.732C78.1091 74.1913 80.0239 77.3384 83.2012 78.443C84.4848 78.9015 85.9156 78.9015 87.1992 78.443C90.3134 77.3384 92.2913 74.2122 92.6701 71.7529C93.0909 71.7112 93.638 71.1485 94.2272 69.0643C95.0478 66.2299 94.1851 65.8131 93.4486 65.8756C93.5959 65.4796 93.7011 65.1045 93.7642 64.7085C95.0057 57.3723 91.3444 57.1013 91.3444 57.1013C91.3444 57.1013 90.7342 55.955 89.135 55.0797C88.104 54.4753 86.61 53.9751 84.6531 54.1418Z" fill="#163074"/>
<path d="M30.9526 81.7565C26.5969 80.11 24.0088 78.4219 24.0088 78.4219L20.6421 88.926L20.1792 90.3432L18.6852 86.1332C22.1361 81.3605 18.4327 81.1313 17.7804 81.1313C17.7804 81.1313 17.7804 81.1313 17.7593 81.1313C17.7593 81.1313 17.7593 81.1313 17.7383 81.1313C17.086 81.1313 13.3826 81.3605 16.8335 86.1332L15.3395 90.3432L14.8766 88.926L11.531 78.4219C11.531 78.4219 8.92176 80.11 4.58713 81.7565C-0.210419 83.4864 0.0841675 87.3837 0 94.6991H16.8756H17.8014H35.5608C35.4556 87.3837 35.7502 83.4864 30.9526 81.7565Z" fill="#163074"/>
<path d="M10.2919 71.7736C10.6707 74.2328 12.5855 77.3799 15.7628 78.4845C17.0464 78.943 18.4772 78.943 19.7608 78.4845C22.875 77.3799 24.8529 74.2537 25.2317 71.7944C25.6525 71.7527 26.1996 71.19 26.7888 69.1058C27.6094 66.2714 26.7467 65.8546 26.0102 65.9171C26.1575 65.5211 26.2627 65.146 26.3258 64.75C27.5673 57.4138 23.906 57.1428 23.906 57.1428C23.906 57.1428 23.2958 55.9965 21.6966 55.1212C20.6235 54.496 19.1506 54.0166 17.1726 54.1833C16.5414 54.2042 15.9312 54.3292 15.363 54.5168C14.6476 54.7669 13.9743 55.1004 13.3851 55.5172C12.6486 55.9757 11.9542 56.5384 11.344 57.1845C10.3761 58.1641 9.51339 59.4354 9.13464 60.9985C8.81901 62.1865 8.88214 63.4161 9.15568 64.7291C9.21881 65.1251 9.32402 65.5003 9.47131 65.8962C8.73484 65.8337 7.87213 66.2506 8.69276 69.085C9.32401 71.1483 9.8711 71.7319 10.2919 71.7736Z" fill="#163074"/>
</g>
<defs>
<clipPath id="clip0">
<rect width="103" height="102.019" fill="white"/>
</clipPath>
</defs>
</svg>
