<svg width="100" height="100" viewBox="0 0 100 100" fill="none" xmlns="http://www.w3.org/2000/svg">
<path d="M89.3252 79.6945C90.3971 78.2133 91.0312 76.3955 91.0312 74.4316V62.6953C91.0312 61.6166 90.1566 60.7422 89.0781 60.7422H80.3492C76.3141 60.7422 73.0312 64.025 73.0312 68.0602V74.4316C73.0312 76.3943 73.6646 78.2107 74.7352 79.6916C73.4 79.9082 72.1154 80.3359 70.9174 80.9621C68.2037 76.9129 63.7578 74.1203 58.6488 73.6492C58.6289 73.6436 58.6086 73.6395 58.5885 73.6346C60.4164 71.5934 61.5307 68.9004 61.5307 65.9512V50C61.5307 48.9213 60.6561 48.0469 59.5775 48.0469H47.7139C42.6164 48.0469 38.4693 52.1939 38.4693 57.2914V65.951C38.4693 68.9002 39.5836 71.5932 41.4115 73.6344C41.3914 73.6393 41.3711 73.6436 41.3512 73.649C36.2416 74.1201 31.7955 76.9131 29.082 80.9629C27.8836 80.3369 26.5988 79.9088 25.2643 79.6922C26.335 78.2113 26.9688 76.3945 26.9688 74.4316V62.6953C26.9688 61.6166 26.0941 60.7422 25.0156 60.7422H16.2867C12.2516 60.7422 8.96875 64.025 8.96875 68.0602V74.4316C8.96875 76.3957 9.60293 78.2133 10.6748 79.6945C4.6293 80.6826 0 85.9402 0 92.2607V98.0469C0 99.1256 0.874609 100 1.95312 100H98.0469C99.1254 100 100 99.1256 100 98.0469V92.2607C100 85.9402 95.3707 80.6826 89.3252 79.6945ZM12.875 68.0602C12.875 66.1789 14.4055 64.6484 16.2867 64.6484H23.0625V67.0271C23.0625 68.1936 22.1137 69.1424 20.9475 69.1424H12.875V68.0602ZM12.875 73.0484H20.9475C21.6916 73.0484 22.4041 72.9119 23.0625 72.6639V74.4316C23.0625 77.2402 20.7775 79.5254 17.9688 79.5254C15.16 79.5254 12.875 77.2402 12.875 74.4316V73.0484ZM19.2279 83.4316L17.9688 84.6908L16.7096 83.4316H19.2279ZM26.2797 90.1828V96.0938H3.90625V92.2607C3.90625 87.8801 7.11387 84.2359 11.3033 83.5496L16.5877 88.834C16.9541 89.2002 17.4508 89.4061 17.9688 89.4061C18.4867 89.4061 18.9834 89.2002 19.3498 88.834L24.6357 83.5479C25.5693 83.6998 26.4672 84.0008 27.3039 84.441C26.6422 86.2313 26.2797 88.1654 26.2797 90.1828ZM50.0002 73.5756C45.7961 73.5756 42.3758 70.1553 42.3758 65.9512V63.3697H54.0484C55.3428 63.3697 56.5615 63.0391 57.6246 62.4582V65.9512C57.6246 70.1553 54.2043 73.5756 50.0002 73.5756ZM53.4047 77.4816L50 80.8863L46.5953 77.4816H53.4047ZM42.3754 57.2914H42.3756C42.3756 54.3479 44.7703 51.9531 47.7139 51.9531H57.6244V55.8875C57.6244 57.8594 56.0201 59.4637 54.0482 59.4637H42.3754V57.2914ZM69.8139 96.0938H66.0156H33.9844H30.1861V92.1875H42.9037C43.9822 92.1875 44.8568 91.3131 44.8568 90.2344C44.8568 89.1557 43.9822 88.2812 42.9037 88.2812H30.3289C31.166 82.7303 35.6094 78.3484 41.1881 77.5986L48.6189 85.0295C49.0004 85.4109 49.5002 85.6016 50 85.6016C50.4998 85.6016 50.9996 85.4109 51.3811 85.0295L58.8119 77.5986C65.0143 78.4322 69.8139 83.7559 69.8139 90.1828V96.0938ZM76.9375 68.0602C76.9375 66.1789 78.468 64.6484 80.3492 64.6484H87.125V67.0271C87.125 68.1936 86.1762 69.1424 85.01 69.1424H76.9375V68.0602ZM76.9375 73.0484H85.01C85.7541 73.0484 86.4666 72.9119 87.125 72.6639V74.4316C87.125 77.2402 84.84 79.5254 82.0312 79.5254C79.2225 79.5254 76.9375 77.2402 76.9375 74.4316V73.0484ZM83.2904 83.4316L82.0312 84.6908L80.7721 83.4316H83.2904ZM73.7201 96.0938V90.1828C73.7201 88.1652 73.3576 86.2311 72.6957 84.4406C73.532 84 74.4297 83.6992 75.3635 83.5475L80.65 88.834C81.0164 89.2002 81.5131 89.4061 82.0311 89.4061C82.549 89.4061 83.0457 89.2002 83.4121 88.834L88.6965 83.5496C92.8859 84.2361 96.0936 87.8801 96.0936 92.2607V96.0938H73.7201Z" fill="#163074"/>
<path d="M59.6244 12.7615C58.8615 11.9988 57.6251 11.9988 56.8621 12.7615L47.2781 22.3457L43.1349 18.2025C42.372 17.4396 41.1357 17.4396 40.3728 18.2023C39.6101 18.965 39.6101 20.2017 40.3728 20.9646L45.897 26.4888C46.2634 26.855 46.7601 27.0609 47.2781 27.0609C47.796 27.0609 48.2927 26.855 48.6591 26.4888L59.6244 15.5236C60.3871 14.7609 60.3871 13.5242 59.6244 12.7615Z" fill="#163074"/>
<path d="M57.9855 1.69372C57.0006 1.25446 55.8457 1.69684 55.4062 2.682C54.9668 3.66716 55.4094 4.82204 56.3945 5.2613C62.0584 7.78727 65.7182 13.4254 65.7182 19.625C65.7182 28.2922 58.6668 35.3435 49.9996 35.3435C41.3324 35.3435 34.2811 28.2922 34.2811 19.625C34.2811 13.4574 37.9145 7.83102 43.5375 5.29137C44.5205 4.84743 44.9576 3.6904 44.5135 2.70739C44.0695 1.72419 42.9119 1.28727 41.9297 1.73122C34.9105 4.90153 30.375 11.9252 30.375 19.6248C30.3748 30.4461 39.1785 39.2498 49.9996 39.2498C60.8207 39.2498 69.6244 30.4461 69.6244 19.625C69.6244 11.8853 65.0559 4.84684 57.9855 1.69372Z" fill="#163074"/>
<path d="M50.0699 0H50C48.9215 0 48.0469 0.874414 48.0469 1.95312C48.0469 3.03184 48.9215 3.90625 50 3.90625H50.0516C50.0547 3.90625 50.0576 3.90625 50.0609 3.90625C51.1354 3.90625 52.0088 3.03789 52.0139 1.9623C52.0189 0.883594 51.1486 0.00507813 50.0699 0Z" fill="#163074"/>
<path d="M51.3807 88.8535C51.0176 88.4902 50.5137 88.2812 50 88.2812C49.4863 88.2812 48.9824 88.4902 48.6191 88.8535C48.2559 89.2168 48.0469 89.7207 48.0469 90.2344C48.0469 90.748 48.2557 91.252 48.6191 91.6152C48.9826 91.9785 49.4863 92.1875 50 92.1875C50.5137 92.1875 51.0176 91.9785 51.3807 91.6152C51.7439 91.252 51.9531 90.748 51.9531 90.2344C51.9531 89.7207 51.7441 89.2168 51.3807 88.8535Z" fill="#163074"/>
</svg>
