<svg width="100" height="100" viewBox="0 0 100 100" fill="none" xmlns="http://www.w3.org/2000/svg">
<g clip-path="url(#clip0)">
<path d="M24.9356 7.26726C24.0059 6.47309 22.6335 6.48383 21.7163 7.29226L15.0093 13.2943V12.5078C15.0093 11.5875 14.2634 10.8415 13.3431 10.8415C12.4227 10.8415 11.6768 11.5875 11.6768 12.5078V16.2787L8.89886 18.7649C8.22341 19.381 8.17049 20.4263 8.78033 21.1076C9.39016 21.7889 10.4349 21.8513 11.1216 21.2478L23.3408 10.31L35.5599 21.2478C36.0024 21.6514 36.6277 21.7865 37.1973 21.6016C37.7671 21.4167 38.1936 20.9402 38.3146 20.3534C38.4357 19.7668 38.2326 19.1603 37.7827 18.7649L24.9356 7.26726Z" fill="#163074"/>
<path d="M33.3379 23.3389C32.4176 23.3389 31.6716 24.0848 31.6716 25.0051V36.6693H15.0083V25.0051C15.0083 24.0848 14.2624 23.3389 13.342 23.3389C12.4217 23.3389 11.6758 24.0848 11.6758 25.0051V37.7275C11.6922 38.9997 12.7365 40.0178 14.0087 40.002H32.6714C33.9444 40.0149 34.9877 38.9954 35.0043 37.7224V25.0051C35.0042 24.0848 34.258 23.3389 33.3379 23.3389Z" fill="#163074"/>
<path d="M23.34 43.3345C16.8979 43.3345 11.6758 48.5568 11.6758 54.9987C11.6758 61.4405 16.8981 66.6628 23.34 66.6628C29.7818 66.6628 35.0042 61.4405 35.0042 54.9987C34.9967 48.5598 29.7789 43.3417 23.34 43.3345ZM15.0083 54.9987C15.0134 51.0409 17.797 47.6308 21.6735 46.8337V54.0539L15.5082 57.7514C15.1854 56.8692 15.0163 55.9381 15.0083 54.9987ZM17.2254 60.6086L23.0816 57.0949L27.9273 61.9406C24.5231 64.2116 19.969 63.6447 17.2254 60.6086ZM30.2834 59.5844L25.0062 54.3088V46.8337C27.7189 47.3834 29.9806 49.2467 31.0392 51.8042C32.0975 54.3617 31.8144 57.2783 30.2834 59.5844Z" fill="#163074"/>
<path d="M89.9922 30.0042V24.3003C89.9912 22.8494 88.8153 21.6735 87.3644 21.6725H82.622C81.1712 21.6735 79.9953 22.8494 79.9943 24.3003V30.0042H76.6616V19.5563C76.6598 17.965 75.3702 16.6755 73.7788 16.6735H69.5462C67.9552 16.6755 66.6656 17.965 66.6636 19.5563V30.0042H63.3311V11.6746C63.3311 9.83392 61.839 8.34184 59.9984 8.34184H56.6657C54.8251 8.34184 53.333 9.83392 53.333 11.6746V30.0042H51.6667C50.7464 30.0042 50.0005 29.258 50.0005 28.3379V8.34204C50.0005 7.42172 49.2543 6.67578 48.3342 6.67578C47.4141 6.67578 46.668 7.42172 46.668 8.34204V28.3379C46.668 31.0987 48.906 33.3369 51.6669 33.3369H89.9924C90.9127 33.3369 91.6587 32.5909 91.6587 31.6706C91.6587 30.7503 90.9125 30.0042 89.9922 30.0042ZM59.9984 30.0042H56.6657V11.6746H59.9984V30.0042ZM73.329 30.0042H69.9963V20.0062H73.329V30.0042ZM86.6595 30.0042H83.327V25.0052H86.6597V30.0042H86.6595Z" fill="#163074"/>
<path d="M89.9922 63.3308H51.6667C50.7464 63.3308 50.0005 62.5849 50.0005 61.6646V59.0217L55.4876 53.5346C56.1459 52.9027 57.1855 52.9027 57.8438 53.5346L59.7967 55.4875C61.7488 57.4391 64.9132 57.4391 66.8652 55.4875L73.817 48.5356C74.4753 47.9037 75.5149 47.9037 76.1732 48.5356L78.1261 50.4903C80.0804 52.4364 83.2403 52.4364 85.1946 50.4903L91.1701 44.5148C91.8016 43.861 91.7926 42.8216 91.1498 42.1789C90.5069 41.5361 89.4677 41.5271 88.8139 42.1586L82.8384 48.1324C82.1878 48.7829 81.1329 48.7829 80.4823 48.1324L78.5293 46.1795C76.5512 44.2916 73.4388 44.2916 71.4609 46.1795L64.509 53.1314C63.8584 53.7818 62.8035 53.7818 62.1529 53.1314L60.2017 51.1784C58.2232 49.2904 55.11 49.2904 53.1315 51.1784L50.0005 54.3094V41.6687C50.0005 40.7484 49.2543 40.0024 48.3342 40.0024C47.4141 40.0024 46.668 40.7486 46.668 41.6687V61.6646C46.668 64.4253 48.906 66.6635 51.6669 66.6635H89.9924C90.9127 66.6635 91.6587 65.9174 91.6587 64.9973C91.6585 64.0768 90.9125 63.3308 89.9922 63.3308Z" fill="#163074"/>
<path d="M99.9896 77.4175V9.24994C100.221 4.40446 96.5015 0.279144 91.658 0.0102539H8.34201C3.49848 0.279339 -0.221451 4.40466 0.0103366 9.24994V77.4175C-0.222232 82.2636 3.4977 86.3899 8.34201 86.6589H35.0031V89.9917H28.3379C24.6568 89.9917 21.6726 92.9758 21.6726 96.6569V98.3231C21.6726 99.2435 22.4186 99.9894 23.3389 99.9894H76.6613C77.5816 99.9894 78.3275 99.2435 78.3275 98.3231V96.6569C78.3275 92.9758 75.3434 89.9917 71.6623 89.9917H64.9971V86.6589H91.6581C96.5023 86.3901 100.222 82.2636 99.9896 77.4175ZM71.6621 93.3244C73.5027 93.3244 74.9948 94.8164 74.9948 96.6571H25.0052C25.0052 94.8164 26.4972 93.3244 28.3379 93.3244H71.6621ZM38.3358 89.9917V86.6589H61.6644V89.9917H38.3358ZM91.658 83.3264H8.34201C5.34244 83.0511 3.1177 80.4214 3.34305 77.4177V73.3285H96.6571V77.4177C96.8825 80.4214 94.6577 83.0511 91.658 83.3264ZM96.6569 9.24994V69.9958H3.34305V9.24994C3.1177 6.24646 5.34263 3.61732 8.34201 3.34277H91.6581C94.6573 3.61732 96.8825 6.24646 96.6569 9.24994Z" fill="#163074"/>
</g>
<defs>
<clipPath id="clip0">
<rect width="100" height="100" fill="white"/>
</clipPath>
</defs>
</svg>
