<svg width="20" height="25" viewBox="0 0 20 25" fill="none" xmlns="http://www.w3.org/2000/svg">
<path d="M15.4659 3.68191C15.5332 3.48016 15.4659 3.21116 15.2642 3.07666L14.2556 2.60592L17.7522 1.12643L18.4246 5.1614L17.416 4.55615C17.3487 4.4889 17.2143 4.42165 17.0798 4.4889C16.9453 4.4889 16.878 4.55615 16.8108 4.69065C14.39 8.86012 11.1624 12.4916 4.70702 12.3571C8.20367 11.6173 12.9779 9.53261 15.4659 3.68191ZM0.470702 11.8863C0.268973 11.8191 0.0672432 12.0208 0 12.2226C0 12.4916 0.134486 12.6933 0.403459 12.7606C2.08454 13.0968 3.56389 13.2986 4.97599 13.2986C11.5658 13.2986 14.928 9.53261 17.3487 5.56489L18.8281 6.43914C18.9626 6.50638 19.1643 6.50638 19.2988 6.43914C19.4333 6.30464 19.5678 6.10289 19.5005 5.96839L18.5591 0.386684C18.5591 0.252185 18.4919 0.117687 18.3574 0.0504371C18.2229 -0.0168124 18.0884 -0.0168124 17.9539 0.0504371L12.9779 2.13517C12.7762 2.20242 12.709 2.40417 12.709 2.53867C12.709 2.74042 12.7762 2.94216 12.9779 3.00941L14.4573 3.74916C10.4227 12.5588 0.941404 11.8863 0.470702 11.8863Z" fill="white"/>
<path d="M4.77315 19.6202V23.0499C4.77315 23.5879 4.43693 24.1259 4.10072 24.1259H1.94894C1.61272 24.1259 1.2765 23.5879 1.2765 23.0499V19.6202C1.2765 19.0822 1.61272 18.6114 1.94894 18.6114H4.10072C4.43693 18.6114 4.77315 19.0822 4.77315 19.6202ZM1.94894 17.6699C1.07478 17.6699 0.402344 18.5442 0.402344 19.6202V23.0499C0.402344 24.1259 1.07478 25.0001 1.94894 25.0001H4.10072C4.97488 25.0001 5.64731 24.1259 5.64731 23.0499V19.6202C5.64731 18.5442 4.97488 17.6699 4.10072 17.6699H1.94894Z" fill="white"/>
<path d="M11.2302 16.3921V23.0498C11.2302 23.5878 10.9612 24.1258 10.625 24.1258H8.47321C8.06975 24.1258 7.80078 23.5878 7.80078 23.0498V16.3921C7.80078 15.8541 8.06975 15.3834 8.47321 15.3834H10.625C10.9612 15.3834 11.2302 15.8541 11.2302 16.3921ZM8.47321 14.4419C7.59905 14.4419 6.85938 15.3161 6.85938 16.3921V23.0498C6.85938 24.1258 7.59905 25.0001 8.47321 25.0001H10.625C11.4992 25.0001 12.1716 24.1258 12.1716 23.0498V16.3921C12.1716 15.3161 11.4992 14.4419 10.625 14.4419H8.47321Z" fill="white"/>
<path d="M18.3552 23.0495C18.3552 23.5875 18.0862 24.1255 17.6827 24.1255H15.5982C15.1948 24.1255 14.9258 23.5875 14.9258 23.0495V12.5586C14.9258 12.0206 15.1948 11.5499 15.5982 11.5499H17.6827C18.0862 11.5499 18.3552 12.0206 18.3552 12.5586V23.0495ZM17.6827 10.6084H15.5982C14.6568 10.6084 13.9844 11.4826 13.9844 12.5586V23.0495C13.9844 24.1255 14.6568 24.9998 15.5982 24.9998H17.6827C18.5569 24.9998 19.2966 24.1255 19.2966 23.0495V12.5586C19.2966 11.4826 18.5569 10.6084 17.6827 10.6084Z" fill="white"/>
</svg>
