<svg width="21" height="21" viewBox="0 0 21 21" fill="none" xmlns="http://www.w3.org/2000/svg">
<path d="M10.0625 4.89648C9.13411 4.89648 8.26562 5.13607 7.45703 5.61523C6.67839 6.06445 6.04948 6.69336 5.57031 7.50195C5.12109 8.2806 4.89648 9.13411 4.89648 10.0625C4.89648 10.9909 5.12109 11.8594 5.57031 12.668C6.04948 13.4466 6.67839 14.0755 7.45703 14.5547C8.26562 15.0039 9.13411 15.2285 10.0625 15.2285C10.9909 15.2285 11.8444 15.0039 12.623 14.5547C13.4316 14.0755 14.0605 13.4466 14.5098 12.668C14.9889 11.8594 15.2285 10.9909 15.2285 10.0625C15.2285 9.13411 14.9889 8.2806 14.5098 7.50195C14.0605 6.69336 13.4316 6.06445 12.623 5.61523C11.8444 5.13607 10.9909 4.89648 10.0625 4.89648ZM10.0625 13.4316C9.13411 13.4316 8.3405 13.1022 7.68164 12.4434C7.02279 11.7845 6.69336 10.9909 6.69336 10.0625C6.69336 9.13411 7.02279 8.3405 7.68164 7.68164C8.3405 7.02279 9.13411 6.69336 10.0625 6.69336C10.9909 6.69336 11.7845 7.02279 12.4434 7.68164C13.1022 8.3405 13.4316 9.13411 13.4316 10.0625C13.4316 10.9909 13.1022 11.7845 12.4434 12.4434C11.7845 13.1022 10.9909 13.4316 10.0625 13.4316ZM16.666 4.67188C16.6361 5.0013 16.5013 5.28581 16.2617 5.52539C16.0521 5.76497 15.7826 5.88477 15.4531 5.88477C15.1237 5.88477 14.8392 5.76497 14.5996 5.52539C14.36 5.28581 14.2402 5.0013 14.2402 4.67188C14.2402 4.34245 14.36 4.05794 14.5996 3.81836C14.8392 3.57878 15.1237 3.45898 15.4531 3.45898C15.7826 3.45898 16.0671 3.57878 16.3066 3.81836C16.5462 4.05794 16.666 4.34245 16.666 4.67188ZM20.0801 5.88477C20.0202 5.01628 19.8854 4.26758 19.6758 3.63867C19.4062 2.88997 18.987 2.24609 18.418 1.70703C17.8789 1.13802 17.235 0.71875 16.4863 0.449219C15.8574 0.239583 15.1087 0.119792 14.2402 0.0898438C13.4017 0.0299479 12.0091 0 10.0625 0C8.11589 0 6.70833 0.0299479 5.83984 0.0898438C5.0013 0.119792 4.26758 0.239583 3.63867 0.449219C2.88997 0.71875 2.23112 1.13802 1.66211 1.70703C1.12305 2.24609 0.71875 2.88997 0.449219 3.63867C0.239583 4.26758 0.104818 5.01628 0.0449219 5.88477C0.014974 6.72331 0 8.11589 0 10.0625C0 12.0091 0.014974 13.4167 0.0449219 14.2852C0.104818 15.1237 0.239583 15.8574 0.449219 16.4863C0.71875 17.235 1.12305 17.8939 1.66211 18.4629C2.23112 19.002 2.88997 19.3913 3.63867 19.6309C4.26758 19.8704 5.0013 20.0052 5.83984 20.0352C6.70833 20.0951 8.11589 20.125 10.0625 20.125C12.0091 20.125 13.4017 20.0951 14.2402 20.0352C15.1087 20.0052 15.8574 19.8854 16.4863 19.6758C17.235 19.4062 17.8789 19.002 18.418 18.4629C18.987 17.8939 19.4062 17.235 19.6758 16.4863C19.8854 15.8574 20.0052 15.1237 20.0352 14.2852C20.0951 13.4167 20.125 12.0091 20.125 10.0625C20.125 8.11589 20.11 6.72331 20.0801 5.88477ZM17.9238 15.9922C17.5645 16.8906 16.9206 17.5345 15.9922 17.9238C15.513 18.1035 14.7044 18.2233 13.5664 18.2832C12.9375 18.3132 12.0091 18.3281 10.7812 18.3281H9.34375C8.14583 18.3281 7.21745 18.3132 6.55859 18.2832C5.45052 18.2233 4.64193 18.1035 4.13281 17.9238C3.23438 17.5645 2.59049 16.9206 2.20117 15.9922C2.02148 15.4831 1.90169 14.6745 1.8418 13.5664C1.81185 12.9076 1.79688 11.9792 1.79688 10.7812V9.34375C1.79688 8.14583 1.81185 7.21745 1.8418 6.55859C1.90169 5.42057 2.02148 4.61198 2.20117 4.13281C2.56055 3.20443 3.20443 2.56055 4.13281 2.20117C4.64193 2.02148 5.45052 1.90169 6.55859 1.8418C7.21745 1.81185 8.14583 1.79688 9.34375 1.79688H10.7812C11.9792 1.79688 12.9076 1.81185 13.5664 1.8418C14.7044 1.90169 15.513 2.02148 15.9922 2.20117C16.9206 2.56055 17.5645 3.20443 17.9238 4.13281C18.1035 4.61198 18.2233 5.42057 18.2832 6.55859C18.3132 7.1875 18.3281 8.11589 18.3281 9.34375V10.7812C18.3281 11.9792 18.3132 12.9076 18.2832 13.5664C18.2233 14.6745 18.1035 15.4831 17.9238 15.9922Z" fill="white"/>
</svg>
