<svg width="103" height="103" viewBox="0 0 103 103" fill="none" xmlns="http://www.w3.org/2000/svg">
<path d="M101.312 88.0159L81.2885 67.9925C80.5027 67.2069 79.2293 67.2069 78.4433 67.9925L77.5616 68.8742L72.0058 63.3184C75.2475 58.8796 77.567 53.7938 78.7491 48.4026C78.9873 47.3172 78.3005 46.2446 77.2152 46.0066C76.1292 45.7694 75.057 46.4554 74.8192 47.5407C71.2482 63.824 56.5379 75.6424 39.841 75.6424C20.0958 75.6424 4.03145 59.5783 4.03145 39.8328C4.03145 20.0874 20.0954 4.02344 39.8408 4.02344C57.0201 4.02344 71.8147 16.2519 75.0186 33.0998C75.2262 34.1912 76.2789 34.9079 77.3707 34.7003C78.4622 34.4927 79.1786 33.4396 78.9712 32.3482C75.4066 13.6044 58.9498 0 39.8408 0C17.8767 0 0.0078125 17.8689 0.0078125 39.833C0.0078125 61.7972 17.8767 79.6661 39.8408 79.6661C48.277 79.6661 56.5329 76.9603 63.3164 72.0125L68.8699 77.566L67.9882 78.4478C67.2026 79.2334 67.2026 80.5072 67.9882 81.2929L88.0117 101.316C89.1342 102.439 90.6086 103 92.0832 103C93.5574 103 95.0318 102.439 96.1543 101.316L101.312 96.1588C103.557 93.9139 103.557 90.261 101.312 88.0159ZM66.4583 69.4642C67.513 68.5151 68.5141 67.5123 69.4578 66.4612L74.7164 71.7198L71.7151 74.7211L66.4583 69.4642ZM98.4666 93.3138L93.3089 98.4714C92.6326 99.1478 91.5326 99.1474 90.8566 98.4714L72.2559 79.8707L79.8658 72.2605L98.4666 90.8611C99.1427 91.5374 99.1427 92.6376 98.4666 93.3138Z" fill="#163074"/>
<path d="M28.5509 28.9697H19.9961C18.8852 28.9697 17.9843 29.8704 17.9843 30.9814C17.9843 32.0925 18.8852 32.9932 19.9961 32.9932H22.2617V43.6947C22.2617 44.944 21.2453 45.9603 19.9961 45.9603C18.7468 45.9603 17.7305 44.944 17.7305 43.6947C17.7305 42.5836 16.8296 41.683 15.7187 41.683C14.6079 41.683 13.707 42.5836 13.707 43.6947C13.707 47.1625 16.5283 49.9839 19.9963 49.9839C23.4643 49.9839 26.2855 47.1627 26.2855 43.6947V32.9932H28.5511C29.662 32.9932 30.5628 32.0925 30.5628 30.9814C30.5628 29.8704 29.662 28.9697 28.5509 28.9697Z" fill="#163074"/>
<path d="M40.3508 28.9697C34.557 28.9697 29.8438 33.6832 29.8438 39.4767C29.8438 45.2703 34.5574 49.9839 40.351 49.9839C46.1445 49.9839 50.8582 45.2703 50.8582 39.4767C50.8582 33.6832 46.1445 28.9697 40.3508 28.9697ZM40.3508 45.9605C36.7757 45.9605 33.867 43.052 33.867 39.4767C33.867 35.9017 36.7755 32.9932 40.3508 32.9932C43.926 32.9932 46.8345 35.9017 46.8345 39.4767C46.8345 43.0518 43.9258 45.9605 40.3508 45.9605Z" fill="#163074"/>
<path d="M65.9689 35.4069C65.9691 31.8573 63.0811 28.9692 59.5314 28.9692H55.4023C54.2915 28.9692 53.3906 29.8699 53.3906 30.981V39.8327V48.6845C53.3906 49.7956 54.2915 50.6962 55.4023 50.6962H59.5312C63.0809 50.6962 65.9689 47.8084 65.9689 44.2585C65.9689 42.5451 65.2948 40.9874 64.1996 39.8325C65.2948 38.6782 65.9689 37.1205 65.9689 35.4069ZM59.5314 46.673H57.4143V41.8446H59.5312C60.8623 41.8446 61.9453 42.9275 61.9453 44.2587C61.9455 45.5901 60.8625 46.673 59.5314 46.673ZM59.5312 37.8212H57.4143V32.9929H59.5312C60.8623 32.9929 61.9453 34.0758 61.9453 35.4069C61.9453 36.7381 60.8623 37.8212 59.5312 37.8212Z" fill="#163074"/>
<path d="M77.6606 37.8213C76.5497 37.8213 75.6489 38.7221 75.6489 39.8332L75.6485 39.9762C75.6442 41.0873 76.5413 41.9916 77.6523 41.9958C77.6551 41.9958 77.6576 41.9958 77.6604 41.9958C78.7676 41.9958 79.6677 41.1002 79.6719 39.9919L79.6723 39.833C79.6723 38.7219 78.7715 37.8213 77.6606 37.8213Z" fill="#163074"/>
<path d="M60.8736 18.7962C49.2738 7.19684 30.3999 7.19684 18.8001 18.7962C18.0145 19.5818 18.0145 20.8556 18.8001 21.6412C19.5857 22.427 20.8591 22.427 21.6453 21.6412C31.6761 11.6105 47.9974 11.6105 58.0286 21.6412C58.4215 22.0341 58.9363 22.2304 59.4511 22.2304C59.9661 22.2304 60.4807 22.0339 60.8736 21.6412C61.6592 20.8558 61.6592 19.5818 60.8736 18.7962Z" fill="#163074"/>
<path d="M21.6892 58.0648L21.6494 58.0247C20.8632 57.2392 19.5898 57.2392 18.804 58.0247C18.0184 58.8103 18.0184 60.0841 18.804 60.8699C18.8058 60.8715 18.8209 60.8866 18.8225 60.8882L18.8318 60.8973C19.2253 61.293 19.7425 61.4911 20.2601 61.4911C20.7723 61.4911 21.2849 61.2968 21.6768 60.9077C22.4649 60.1256 22.471 58.8534 21.6892 58.0648Z" fill="#163074"/>
<path d="M60.8753 58.0247C60.0897 57.2393 58.8163 57.2391 58.0301 58.0247C49.8428 66.2119 37.1142 67.9203 27.0774 62.1799C26.1128 61.6282 24.884 61.9628 24.3322 62.9274C23.7806 63.8918 24.1153 65.1208 25.0797 65.6724C29.6719 68.2987 34.7503 69.5769 39.7983 69.5769C47.5116 69.5769 55.1529 66.592 60.8755 60.8698C61.661 60.0844 61.661 58.8104 60.8753 58.0247Z" fill="#163074"/>
</svg>
