<svg width="103" height="103" viewBox="0 0 103 103" fill="none" xmlns="http://www.w3.org/2000/svg">
<path d="M99.1516 89.8853C97.8943 85.6988 94.443 82.6126 90.1426 81.8312L79.3013 79.8586V79.0028C83.3556 76.6485 86.3245 72.6322 87.2497 67.884C90.2533 67.2628 92.5183 64.5979 92.5183 61.4126V45.0946C92.5183 40.4835 89.4982 36.4622 85.1168 35.1537L84.2907 34.3277C80.4479 30.4848 75.3395 28.3701 69.9057 28.3701C58.6894 28.3701 49.5631 37.4948 49.5631 48.7127V61.4126C49.5631 64.5979 51.8282 67.2628 54.8317 67.884C55.7586 72.6322 58.7258 76.6501 62.7801 79.0028V79.8586L51.9389 81.8295C47.6384 82.6126 44.1871 85.6988 42.9298 89.8853L39.082 102.716H102.999L99.1516 89.8853ZM87.562 64.2575V58.5676C88.545 59.1409 89.2141 60.195 89.2141 61.4126C89.2141 62.6302 88.545 63.6843 87.562 64.2575ZM54.5195 64.2575C53.5365 63.6843 52.8674 62.6302 52.8674 61.4126C52.8674 60.195 53.5365 59.1409 54.5195 58.5676V64.2575ZM54.5195 53.152V55.0387C53.9313 55.1923 53.3795 55.4236 52.8674 55.7227V48.7127C52.8674 39.3187 60.5101 31.6744 69.9057 31.6744C74.4557 31.6744 78.7363 33.4471 81.9546 36.6654L83.4118 38.1243L83.8562 38.2333C87.0118 39.0214 89.2141 41.8432 89.2141 45.0946V55.7227C88.7019 55.4236 88.1501 55.1907 87.562 55.0387V53.152H82.3231C77.8458 53.152 73.5668 51.0141 70.8821 47.434L69.5687 45.6794L66.2859 48.9638C63.583 51.6651 59.9913 53.152 56.1716 53.152H54.5195ZM57.8237 64.7168V56.3802C61.9028 56.0019 65.6878 54.2325 68.622 51.2999L69.2647 50.6573C72.5772 54.3134 77.3485 56.4562 82.3231 56.4562H84.2577V64.7168C84.2577 72.0044 78.3282 77.9338 71.0407 77.9338C63.7532 77.9338 57.8237 72.0044 57.8237 64.7168ZM66.2248 80.5177C67.7497 80.9836 69.3655 81.2381 71.0407 81.2381C72.716 81.2381 74.3317 80.9836 75.8567 80.5177L71.0407 84.1293L66.2248 80.5177ZM68.5262 86.3729L65.1542 89.7432L62.9668 83.1826L64.0192 82.9926L68.5262 86.3729ZM78.0622 82.9926L79.113 83.1843L76.9256 89.7449L73.5536 86.3745L78.0622 82.9926ZM43.5229 99.4114L46.0969 90.8353C46.9941 87.8449 49.459 85.6393 52.532 85.0826L59.6857 83.7823L63.7119 95.8627L71.0407 88.5305L78.3712 95.861L82.3974 83.7807L89.5511 85.0809C92.6224 85.6393 95.089 87.8449 95.9861 90.8336L98.5585 99.4114H43.5229Z" fill="#163074"/>
<path d="M42.9552 26.9974V16.5262L38.4714 15.3317C38.3392 14.9864 38.1954 14.6411 38.0385 14.2958L40.3663 10.2746L32.9648 2.87306L28.9436 5.2009C28.5999 5.04395 28.2546 4.90021 27.911 4.76804L26.7115 0.28418H16.2437L15.0459 4.7697C14.7006 4.90187 14.357 5.0456 14.0133 5.20255L9.99204 2.87306L2.59053 10.2746L4.91837 14.2958C4.75977 14.6411 4.61603 14.9864 4.48386 15.3317L0 16.5262V26.9974L4.48386 28.1919C4.61603 28.5371 4.75977 28.8824 4.91837 29.2277L2.59053 33.249L9.99204 40.6505L14.0133 38.3227C14.357 38.4796 14.7022 38.6234 15.0459 38.7555L16.2437 43.2394H26.7115L27.9093 38.7539C28.2546 38.6217 28.5983 38.478 28.9419 38.321L32.9632 40.6489L40.3647 33.2474L38.0368 29.2261C38.1938 28.8808 38.3392 28.5355 38.4697 28.1902L42.9552 26.9974ZM36.2344 32.7055L32.4213 36.5202L29.0592 34.5724L28.2563 34.9837C27.5194 35.3621 26.7694 35.676 26.0292 35.9155L25.1718 36.1914L24.1739 39.9352H18.7813L17.7835 36.1914L16.926 35.9155C16.1859 35.6743 15.4358 35.3621 14.6989 34.9837L13.896 34.5724L10.5339 36.5202L6.72084 32.7055L8.66704 29.345L8.25566 28.5421C7.87402 27.8003 7.56177 27.0502 7.32552 26.315L7.04961 25.4559L3.30425 24.4581V19.0655L7.04961 18.0676L7.32552 17.2085C7.56177 16.475 7.87402 15.7249 8.25566 14.9815L8.66704 14.1785L6.72084 10.8181L10.5339 7.00337L13.896 8.95122L14.6989 8.53984C15.4358 8.16151 16.1859 7.8476 16.926 7.60804L17.7835 7.33214L18.7813 3.58843H24.1739L25.1718 7.33214L26.0292 7.60804C26.7694 7.84925 27.5194 8.16151 28.2563 8.53984L29.0592 8.95122L32.4213 7.00337L36.2344 10.8181L34.2882 14.1785L34.6996 14.9815C35.0812 15.7233 35.3934 16.4733 35.6297 17.2085L35.9056 18.0676L39.651 19.0655V24.4581L35.9056 25.4559L35.6297 26.315C35.3934 27.0486 35.0812 27.7986 34.6996 28.5421L34.2882 29.345L36.2344 32.7055Z" fill="#163074"/>
<path d="M30.7606 28.6626C32.2541 26.6569 33.0438 24.2712 33.0438 21.7616C33.0438 15.3861 27.8561 10.1968 21.4789 10.1968C15.1017 10.1968 9.91406 15.3861 9.91406 21.7616C9.91406 28.1372 15.1017 33.3265 21.4789 33.3265C24.0562 33.3265 26.4931 32.4988 28.5285 30.9309L26.5129 28.314C25.0591 29.4325 23.3194 30.0223 21.4789 30.0223C16.924 30.0223 13.2183 26.3166 13.2183 21.7616C13.2183 17.2067 16.924 13.501 21.4789 13.501C26.0338 13.501 29.7395 17.2067 29.7395 21.7616C29.7395 23.5542 29.1762 25.2575 28.1106 26.6883L30.7606 28.6626Z" fill="#163074"/>
<path d="M99.6131 20.5937L97.4769 22.7299V16.8054C97.4769 7.69561 90.0655 0.28418 80.9557 0.28418H71.043V3.58843H80.9557C88.2432 3.58843 94.1727 9.5179 94.1727 16.8054V22.7299L92.0365 20.5937L89.7004 22.9298L95.8248 29.0543L101.949 22.9298L99.6131 20.5937Z" fill="#163074"/>
<path d="M8.26092 86.1946V80.2701L10.3971 82.4063L12.7332 80.0702L6.6088 73.9458L0.484375 80.0702L2.82048 82.4063L4.95667 80.2701V86.1946C4.95667 95.3045 12.3681 102.716 21.4779 102.716V99.4116C14.1904 99.4116 8.26092 93.4822 8.26092 86.1946Z" fill="#163074"/>
<path d="M42.9552 49.8477H0V53.1519H42.9552V49.8477Z" fill="#163074"/>
<path d="M42.9552 63.0649H0V66.3692H42.9552V63.0649Z" fill="#163074"/>
<path d="M19.8255 56.4565H0V59.7608H19.8255V56.4565Z" fill="#163074"/>
<path d="M32.6286 56.4565H24.781H23.1289V59.7608H24.781H32.6286H42.9544V56.4565H32.6286Z" fill="#163074"/>
<path d="M67.7378 0.28418H64.4336V3.58843H67.7378V0.28418Z" fill="#163074"/>
<path d="M61.1285 0.28418H57.8242V3.58843H61.1285V0.28418Z" fill="#163074"/>
<path d="M28.0855 99.4116H24.7812V102.716H28.0855V99.4116Z" fill="#163074"/>
<path d="M34.6949 99.4116H31.3906V102.716H34.6949V99.4116Z" fill="#163074"/>
</svg>
