<svg width="100" height="100" viewBox="0 0 100 100" fill="none" xmlns="http://www.w3.org/2000/svg">
<g clip-path="url(#clip0)">
<path d="M99.9745 54.5286C99.9536 43.2687 92.8396 33.2439 82.2179 29.507L90.5324 26.2868L88.2742 20.4585L68.8873 27.9765L76.399 47.3604L82.2242 45.1053L78.245 34.8293C87.3224 37.0533 93.7117 45.1828 93.7277 54.5286C94.3125 64.2624 86.8956 72.6275 77.1617 73.2122C76.8184 73.2329 76.4744 73.2434 76.1304 73.244L26.1872 29.5413H25.0128C11.8237 28.9303 0.636637 39.1269 0.0256217 52.316C-0.00854055 53.0531 -0.00854055 53.7914 0.0256217 54.5286C0.0256217 68.7744 11.4385 79.5158 26.5745 79.5158V73.269C14.8087 73.269 6.27243 65.3886 6.27243 54.5286C5.68757 44.7947 13.1045 36.4296 22.8384 35.845C23.1817 35.8243 23.5257 35.8137 23.8697 35.8131L73.8129 79.5158H74.9873C88.1764 80.1268 99.3635 69.9302 99.9745 56.7411C100.009 56.0042 100.009 55.2657 99.9745 54.5286Z" fill="#163074"/>
<path d="M40.6296 73.269H34.3828V79.5158H40.6296V73.269Z" fill="#163074"/>
</g>
<defs>
<clipPath id="clip0">
<rect width="100" height="100" fill="white"/>
</clipPath>
</defs>
</svg>
