<svg width="103" height="103" viewBox="0 0 103 103" fill="none" xmlns="http://www.w3.org/2000/svg">
<g clip-path="url(#clip0)">
<path d="M63.4867 14.8311C63.2711 14.8311 63.0849 14.7067 63.0731 14.5538C63.0614 14.4009 63.0702 14.101 63.0927 13.8874C63.0927 13.8874 63.3073 11.8706 64.3716 10.5937C65.33 9.46574 65.8621 8.63471 65.8621 7.67629C65.8621 6.59047 65.1811 5.86528 63.8404 5.8447C63.0741 5.8447 62.2225 6.10048 61.6894 6.50521L61.3189 5.53013C61.2425 5.32825 61.3405 5.09208 61.5375 5.00486C61.5375 5.00486 63.0957 4.31201 64.2236 4.31201C66.6726 4.31201 67.78 5.82412 67.78 7.44109C67.78 8.88951 66.9715 9.93319 65.9494 11.1464C65.0125 12.2538 64.6715 13.1906 64.7361 14.2765L64.742 14.4391C64.7499 14.6547 64.5803 14.8311 64.3647 14.8311H63.4867Z" fill="#163074"/>
<path d="M64.3643 15.223H63.4882C63.0648 15.223 62.712 14.9428 62.6836 14.5851C62.6699 14.4057 62.6797 14.0814 62.7042 13.8462C62.714 13.7589 62.9452 11.6961 64.0722 10.3437C64.9591 9.29904 65.4716 8.52878 65.4716 7.67717C65.4716 6.50903 64.5818 6.24934 63.8361 6.23758C63.155 6.23758 62.3857 6.47081 61.927 6.81871L61.5096 7.13524L60.9529 5.67017C60.804 5.2772 60.9951 4.81759 61.3792 4.64707C61.4459 4.61571 63.0266 3.91992 64.2251 3.91992C66.9524 3.91992 68.1725 5.68879 68.1725 7.441C68.1725 8.99231 67.3395 10.1056 66.2497 11.3991C65.404 12.3987 65.0689 13.2513 65.1277 14.2538L65.1345 14.4243C65.1414 14.637 65.0659 14.8369 64.9189 14.9888C64.7729 15.1397 64.5759 15.223 64.3643 15.223ZM63.4617 14.4243L64.3505 14.439L64.3447 14.292C64.2741 13.0788 64.6641 12.0597 65.651 10.8935C66.6682 9.68515 67.3885 8.72967 67.3885 7.441C67.3885 6.11704 66.5575 4.70391 64.2241 4.70391C63.1942 4.70391 61.7115 5.35658 61.6968 5.36246L61.8957 5.91712C62.4592 5.62803 63.1746 5.45261 63.8419 5.45261C65.3325 5.47613 66.2556 6.32774 66.2556 7.67619C66.2556 8.76887 65.6755 9.66556 64.672 10.8464C63.6979 12.0156 63.4862 13.9089 63.4842 13.9285C63.4686 14.0804 63.4588 14.2803 63.4617 14.4243Z" fill="#163074"/>
<path d="M62.625 17.8113C62.625 17.0234 63.1571 16.4707 63.9029 16.4707C64.6477 16.4707 65.1592 17.0234 65.1592 17.8113C65.1592 18.5571 64.6692 19.1323 63.8804 19.1323C63.1356 19.1314 62.625 18.5571 62.625 17.8113Z" fill="#163074"/>
<path d="M63.8817 19.5233C62.9429 19.5233 62.2344 18.7873 62.2344 17.8102C62.2344 16.8067 62.937 16.0776 63.9043 16.0776C64.8597 16.0776 65.5526 16.8067 65.5526 17.8102C65.5536 18.8039 64.8509 19.5233 63.8817 19.5233ZM63.9043 16.8626C63.3741 16.8626 63.0184 17.2438 63.0184 17.8112C63.0184 18.3581 63.3731 18.7402 63.8817 18.7402C64.4207 18.7402 64.7686 18.3757 64.7686 17.8112C64.7696 17.235 64.4305 16.8626 63.9043 16.8626Z" fill="#163074"/>
<path d="M31.5594 48.9579L45.8495 45.2732C47.244 44.9135 48.5876 43.5974 48.9737 42.2107L52.5634 29.3602C52.7819 28.5782 52.6555 27.7776 52.2145 27.1621C51.7745 26.5457 51.0562 26.1665 50.2438 26.1204L48.7101 26.0391C47.2283 26.0391 45.7888 27.0965 45.3605 28.4978L43.0144 36.1701C42.7998 36.8708 41.956 37.6656 41.2426 37.839L30.6294 39.896C29.1526 40.2547 27.9629 41.7247 27.9208 43.2417C27.9208 43.2417 27.7865 47.8829 28.2432 48.3532C28.6802 48.8021 29.2859 49.2852 31.5594 48.9579Z" fill="#163074"/>
<path d="M41.0673 34.0729C41.5015 34.0729 41.9277 34.0386 42.3491 33.9876L44.1415 28.1254C44.7266 26.2095 46.6905 24.765 48.7092 24.765L50.3105 24.8473C50.7456 24.8718 51.1533 24.9836 51.5414 25.1335C51.6296 24.5847 51.6874 24.0261 51.6874 23.4528C51.6874 17.5974 46.9237 12.8337 41.0683 12.8337C35.2129 12.8337 30.4492 17.5974 30.4492 23.4528C30.4492 29.3082 35.2119 34.0729 41.0673 34.0729Z" fill="#163074"/>
<path d="M64.4796 0C58.6262 0 53.8635 5.25858 53.8635 11.7216C53.8635 14.6262 54.8307 17.283 56.4222 19.3331C56.3399 19.3987 56.2595 19.4703 56.1997 19.5644L54.0163 22.9933C53.7263 23.45 53.8605 24.0556 54.3172 24.3467C54.4799 24.4505 54.6622 24.4995 54.8425 24.4995C55.1668 24.4995 55.4834 24.3388 55.6706 24.0458L57.7501 20.7786C59.5836 22.4416 61.9277 23.4421 64.4796 23.4421C70.334 23.4421 75.0967 18.1836 75.0967 11.7206C75.0967 5.2576 70.334 0 64.4796 0ZM64.4796 21.4832C59.7061 21.4832 55.8234 17.1046 55.8234 11.7216C55.8234 6.33852 59.7061 1.95996 64.4796 1.95996C69.2531 1.95996 73.1368 6.33852 73.1368 11.7216C73.1368 17.1046 69.2531 21.4832 64.4796 21.4832Z" fill="#163074"/>
<path d="M54.5 38.5653C53.909 37.7421 52.8712 37.0934 51.8119 36.7817L50.1988 42.5548C49.6912 44.3727 47.9958 46.0357 46.1662 46.5081L31.8751 50.1928C31.196 50.2976 30.706 50.3398 30.2376 50.3398C30.1102 50.3398 29.9965 50.331 29.8789 50.3241V69.0261V69.519V98.1012C29.8789 100.803 32.077 103.001 34.7788 103.001H35.1248C37.8266 103.001 40.0247 100.803 40.0247 98.1012V72.458H42.1081V98.1002C42.1081 100.802 44.3062 103 47.008 103H47.353C50.0548 103 52.2529 100.802 52.2529 98.1002V69.518V69.0251V68.9075H52.5606C53.9806 68.9075 55.6387 67.9383 56.3365 66.7006L63.1395 54.6233C63.8519 53.3601 63.7471 51.4481 62.9014 50.2712L54.5 38.5653ZM55.5329 54.4273L52.2539 59.7692V47.6076L55.4692 52.2213C55.8631 52.7878 55.8945 53.8393 55.5329 54.4273Z" fill="#163074"/>
</g>
<defs>
<clipPath id="clip0">
<rect width="103" height="103" fill="white"/>
</clipPath>
</defs>
</svg>
