<svg width="100" height="100" viewBox="0 0 100 100" fill="none" xmlns="http://www.w3.org/2000/svg">
<g clip-path="url(#clip0)">
<path d="M37.2327 38.8212C37.2591 38.9271 37.2476 38.9337 37.2194 38.8891C37.188 39.0197 37.1615 39.1587 37.1367 39.3258C37.1814 39.0363 37.2294 38.9221 37.2707 38.8957C37.2608 38.8709 37.2492 38.8312 37.2376 38.8047C37.236 38.8097 37.2327 38.8163 37.2327 38.8212Z" fill="#163074"/>
<path d="M82.7659 42.0155C75.7501 31.5753 66.1552 24.4735 54.6216 20.1393C49.0152 18.6818 41.6768 22.3378 41.5246 22.5165C41.149 22.6422 40.7719 22.8043 40.3897 23.0392C39.1986 23.777 38.4493 24.6985 38.0076 25.701C36.2275 26.7547 34.3731 27.6729 32.3879 28.318C30.2523 29.0112 28.105 29.0956 26.9553 28.4206C27.0231 28.4587 26.6989 28.2022 26.4987 27.6166C26.1331 26.5397 26.234 25.5736 26.3167 24.3924C26.5632 20.7927 28.5748 17.1384 30.2754 14.0631C33.3458 8.50962 24.851 3.55006 21.7823 9.1002C17.635 16.6057 12.8773 28.318 20.1909 35.5258C25.8403 41.0891 34.2623 38.798 40.9886 35.2627C41.3178 35.7805 41.6718 36.2867 42.0788 36.7665C42.5254 37.2892 42.9357 37.8302 43.3526 38.3678C45.5676 42.1562 45.6504 51.8486 45.6504 51.8486C45.6504 51.8486 37.9315 78.2113 38.57 92.4399C38.9588 101.125 52.4859 101.163 52.0922 92.4399C51.6041 81.5315 52.9921 71.0764 56.5339 60.9108C57.1725 61.1987 57.8325 61.4253 58.5108 61.5858C59.1278 72.9937 60.8896 84.2644 64.2164 95.2571C66.7309 103.583 79.7833 100.035 77.2539 91.664C73.4606 79.0964 71.8427 66.4047 71.76 53.3044C71.7567 52.3052 71.1346 49.3887 70.9957 48.7551C70.2976 45.5789 69.3116 42.5466 68.0808 39.6334C70.3588 41.8055 72.4382 44.2389 74.2712 46.9734C77.7948 52.2142 86.3177 47.2944 82.7659 42.0155Z" fill="#163074"/>
<path d="M41.0255 20.1525C46.5904 20.1525 51.1017 15.6412 51.1017 10.0763C51.1017 4.5113 46.5904 0 41.0255 0C35.4605 0 30.9492 4.5113 30.9492 10.0763C30.9492 15.6412 35.4605 20.1525 41.0255 20.1525Z" fill="#163074"/>
</g>
<defs>
<clipPath id="clip0">
<rect width="100" height="100" fill="white"/>
</clipPath>
</defs>
</svg>
