<svg width="100" height="100" viewBox="0 0 100 100" fill="none" xmlns="http://www.w3.org/2000/svg">
<path d="M86.0373 70.5162C86.0258 70.4973 86.0145 70.4781 86.0029 70.459C85.9189 70.3217 85.8328 70.1855 85.7447 70.0504C85.6963 69.9758 85.6475 69.9014 85.5979 69.8275C85.5375 69.7379 85.4766 69.6486 85.4143 69.56C85.334 69.4449 85.2521 69.3313 85.1691 69.2184C85.1443 69.1848 85.1213 69.1504 85.0965 69.117C85.0787 69.0934 85.06 69.0709 85.0422 69.0473C84.9422 68.9146 84.84 68.784 84.7363 68.6547C84.7 68.6094 84.6641 68.5639 84.6275 68.5191C84.5242 68.393 84.4185 68.2688 84.3117 68.1457C84.2672 68.0943 84.2232 68.0426 84.1783 67.9918C84.0893 67.8914 83.9978 67.7932 83.9064 67.6951C83.8383 67.6217 83.7707 67.5479 83.7014 67.4758C83.6494 67.4219 83.5957 67.3695 83.543 67.3164C81.5203 65.2691 79.0279 63.774 76.2217 62.9479C76.1736 62.9336 76.1248 62.9219 76.0754 62.9127C76.0748 62.9127 62.8338 60.4529 62.8332 60.4527C62.8098 60.4484 62.7863 60.4473 62.7629 60.4436C62.1434 60.3428 61.5104 60.4258 60.9422 60.6746C60.4813 60.1086 60.1775 59.3311 60.1775 58.6127V56.2154C61.0145 55.6811 61.8271 55.0805 62.6115 54.4051C65.893 51.5797 67.9596 47.5014 68.4055 43.0523C70.8148 42.941 72.7404 40.9461 72.7404 38.5098V35.0941C72.7404 33.7129 72.1215 32.4348 71.0795 31.5816V23.7297C75.8674 21.3701 76.9078 18.6191 76.9078 16.6781C76.9078 13.3477 73.8059 9.17891 68.8125 5.79844C65.6135 3.63301 58.9158 0 50.0018 0C41.0877 0 34.3902 3.63301 31.1912 5.79844C26.1979 9.17871 23.0959 13.3475 23.0959 16.6781C23.0959 18.6191 24.1363 21.3701 28.9242 23.7297V31.5816C27.8824 32.4348 27.2633 33.7129 27.2633 35.0941V38.5098C27.2633 40.9461 29.1889 42.941 31.5982 43.0523C32.0439 47.5014 34.1107 51.5799 37.3922 54.4051C38.1766 55.0805 38.9893 55.6811 39.8262 56.2154V58.6127C39.8262 59.3311 39.5225 60.1084 39.0615 60.6744C38.4719 60.416 37.8121 60.3332 37.1705 60.4527L23.9285 62.9127C23.8791 62.9219 23.8303 62.9336 23.7822 62.9479C20.9773 63.7736 18.4861 65.2676 16.4639 67.3133C16.4098 67.3678 16.3551 67.4215 16.3018 67.4766C16.2334 67.5475 16.1668 67.6205 16.0996 67.6928C16.0072 67.792 15.915 67.8912 15.8248 67.9926C15.7805 68.0426 15.7371 68.0938 15.6932 68.1443C15.5857 68.268 15.4797 68.3928 15.376 68.5195C15.3395 68.5641 15.3039 68.6094 15.2678 68.6543C15.1639 68.784 15.0615 68.9146 14.9615 69.0473C14.9438 69.0709 14.925 69.0932 14.9072 69.117C14.8822 69.1504 14.8592 69.1848 14.8346 69.2184C14.7516 69.3313 14.6697 69.4449 14.5895 69.56C14.5271 69.6488 14.466 69.7383 14.4057 69.8279C14.3563 69.9016 14.3076 69.9756 14.2594 70.05C14.1713 70.1854 14.085 70.3217 14.0008 70.459C13.9893 70.4779 13.9777 70.4971 13.9664 70.516C12.3475 73.1838 11.4961 76.2131 11.4961 79.3727V81.1586C11.4961 81.968 12.1521 82.6238 12.9613 82.6238C13.7705 82.6238 14.4266 81.9678 14.4266 81.1586V79.3727C14.4266 77.9445 14.6383 76.549 15.0461 75.2158C15.9084 75.9016 16.9549 76.2668 18.0426 76.2668C18.2164 76.2668 18.3916 76.2574 18.5668 76.2385C19.8498 76.101 21.0025 75.4719 21.8125 74.4674L23.407 72.4898C24.217 71.4854 24.5873 70.2254 24.4498 68.9424C24.3404 67.9229 23.9197 66.9861 23.2479 66.2377C23.6689 66.0664 24.099 65.9119 24.5398 65.7797L32.9893 64.2102L39.6939 73.5924C40.365 74.5311 41.4158 75.0486 42.5057 75.0486C42.9629 75.0486 43.427 74.9576 43.8727 74.7684L44.3189 74.5787L46.2701 76.8471L43.4559 97.0693H25.043V85.1879C25.043 84.3785 24.3869 83.7227 23.5777 83.7227C22.7686 83.7227 22.1125 84.3785 22.1125 85.1879V97.0693H16.2512C15.2451 97.0693 14.427 96.251 14.427 95.2451V87.9768C14.427 87.1674 13.7709 86.5115 12.9617 86.5115C12.1525 86.5115 11.4965 87.1676 11.4965 87.9768V95.2451C11.4965 97.8668 13.6295 100 16.2514 100H83.7529C86.3748 100 88.5078 97.8668 88.5078 95.2451V79.373C88.5074 76.2133 87.6562 73.184 86.0373 70.5162ZM21.1256 70.6508L19.5311 72.6285C19.2125 73.0236 18.7592 73.2709 18.2545 73.3252C17.7506 73.3791 17.2543 73.2338 16.8592 72.915L16.2477 72.4221C16.3789 72.1881 16.5164 71.9584 16.6598 71.7332C16.6613 71.7307 16.6633 71.7281 16.6648 71.7254C16.7879 71.5324 16.9174 71.3445 17.0492 71.1584C17.0893 71.1021 17.1291 71.0459 17.1699 70.99C17.2875 70.8291 17.4084 70.6711 17.5324 70.5156C17.5645 70.4754 17.5959 70.4346 17.6283 70.3947C17.7684 70.223 17.9129 70.0555 18.0607 69.8908C18.1039 69.8426 18.1479 69.7953 18.1916 69.7479C18.3381 69.5891 18.4869 69.4326 18.6406 69.2809C18.6537 69.2678 18.6666 69.2543 18.6799 69.2412C19.2465 68.6855 19.8607 68.1766 20.5184 67.7199L20.8395 67.9789C21.2346 68.2975 21.482 68.7508 21.5361 69.2555C21.5898 69.76 21.4443 70.2553 21.1256 70.6508ZM79.1645 67.9785L79.4855 67.7195C80.1434 68.1762 80.7574 68.6852 81.324 69.2408C81.3373 69.2539 81.35 69.2674 81.3633 69.2805C81.517 69.4324 81.6658 69.5889 81.8123 69.7475C81.856 69.7949 81.9 69.8422 81.9432 69.8904C82.091 70.0551 82.2355 70.2229 82.3756 70.3943C82.408 70.4342 82.4395 70.475 82.4715 70.5152C82.5955 70.6707 82.7164 70.8289 82.834 70.9896C82.8748 71.0453 82.9148 71.1018 82.9547 71.158C83.0865 71.3441 83.216 71.5322 83.3391 71.725C83.3408 71.7275 83.3426 71.7301 83.3441 71.7328C83.4877 71.958 83.6252 72.1877 83.7562 72.4217L83.1447 72.9146C82.7494 73.2332 82.2535 73.3785 81.7494 73.3248C81.2447 73.2707 80.7914 73.0232 80.4727 72.6279L78.8781 70.6504C78.2203 69.8348 78.349 68.6363 79.1645 67.9785ZM61.6697 63.6811C61.6717 63.6797 61.6736 63.6781 61.6756 63.6766L62.059 63.3898C62.1271 63.3389 62.2145 63.3191 62.2977 63.3342L63.8346 63.6197L57.9256 71.8885C57.7777 72.0955 57.5109 72.1705 57.2768 72.0711L52.9205 70.2205L61.6697 63.6811ZM50.0018 68.7432L41.4633 62.3611C42.2699 61.3021 42.7568 59.9543 42.7568 58.6127V57.7549C45.017 58.7018 47.432 59.1969 49.9855 59.2254C49.991 59.2254 49.9965 59.2254 50.002 59.2254C50.0074 59.2254 50.0129 59.2254 50.0184 59.2254C52.5719 59.1967 54.9869 58.7016 57.2471 57.7549V58.6127C57.2471 59.9545 57.734 61.3021 58.5404 62.3611L50.0018 68.7432ZM52.8541 73.3764L51.5193 74.9281H48.4848L47.15 73.3764L50.002 72.1648L52.8541 73.3764ZM28.9242 20.3895C27.041 19.2285 26.0266 17.9461 26.0266 16.6779C26.0266 14.0365 29.5553 10.4447 32.834 8.22519C35.7551 6.24805 41.8695 2.93066 50.0018 2.93066C58.134 2.93066 64.2484 6.24805 67.1695 8.22539C70.4482 10.4449 73.977 14.0367 73.977 16.6781C73.977 17.9461 72.9625 19.2287 71.0793 20.3896V17.725C71.0793 15.6557 69.6787 13.8523 67.673 13.3396C63.8795 12.3701 56.4199 10.7436 49.0844 10.7406C49.0777 10.7406 49.0723 10.7406 49.0656 10.7406C42.7135 10.7406 36.4025 12.1393 32.2262 13.3131C30.282 13.8596 28.9242 15.6514 28.9242 17.6703V20.3895ZM34.0061 25.534C33.9855 25.5209 33.9646 25.508 33.9443 25.4949C33.8494 25.4342 33.758 25.373 33.6691 25.3117C33.633 25.2867 33.5973 25.2617 33.5621 25.2365C33.4895 25.185 33.4189 25.133 33.3506 25.0811C33.3035 25.0451 33.258 25.0092 33.2131 24.9732C33.1592 24.9303 33.1062 24.8873 33.0555 24.8441C33.0014 24.798 32.95 24.7521 32.8996 24.7061C32.8617 24.6715 32.8234 24.6371 32.7875 24.6025C32.7301 24.5471 32.6764 24.4918 32.6242 24.4365C32.5992 24.4102 32.573 24.3836 32.5492 24.3572C32.5467 24.3543 32.5445 24.3514 32.542 24.3486H57.1424C57.9516 24.3486 58.6076 23.6926 58.6076 22.8834C58.6076 22.074 57.9516 21.4182 57.1424 21.4182H31.8549V17.6705C31.8549 16.9588 32.3336 16.3271 33.0191 16.1346C37.0186 15.0104 43.0467 13.6713 49.0656 13.6713C49.0711 13.6713 49.0775 13.6713 49.083 13.6713C56.0984 13.6742 63.2869 15.2436 66.9473 16.1791C67.6545 16.3598 68.1484 16.9955 68.1484 17.725V21.418H64.2188C63.4096 21.418 62.7535 22.074 62.7535 22.8832C62.7535 23.6928 63.4096 24.3486 64.2189 24.3486H67.4623C67.4598 24.3516 67.4576 24.3545 67.4551 24.3572C67.4312 24.3836 67.4051 24.4102 67.3801 24.4365C67.3277 24.4918 67.2742 24.5471 67.2168 24.6025C67.1809 24.6371 67.1426 24.6715 67.1047 24.7061C67.0543 24.7521 67.0029 24.798 66.9488 24.8441C66.898 24.8873 66.8451 24.9303 66.7912 24.9732C66.7463 25.0092 66.7008 25.0451 66.6537 25.0811C66.5854 25.133 66.5148 25.185 66.4422 25.2365C66.407 25.2615 66.3713 25.2867 66.3352 25.3117C66.2461 25.373 66.1549 25.4342 66.06 25.4949C66.0396 25.508 66.0189 25.5209 65.9982 25.534C65.3893 25.9172 64.6637 26.2869 63.8344 26.6299C63.817 26.6371 63.8014 26.6473 63.7844 26.6551C60.6449 27.9492 55.9271 28.9271 50.0021 28.9271C44.0771 28.9271 39.3594 27.9492 36.2199 26.6551C36.2029 26.6473 36.1873 26.6371 36.1699 26.6299C35.3406 26.2869 34.615 25.9172 34.0061 25.534ZM34.1443 28.9391V31.7937C33.3387 31.3762 32.5234 31.1516 31.8551 31.0314V27.6264C32.4836 28.073 33.2395 28.5141 34.1443 28.9391ZM65.8594 28.9389C66.7643 28.5141 67.5199 28.073 68.1486 27.6264V31.0311C67.4803 31.1512 66.665 31.376 65.8594 31.7936V28.9389ZM39.3043 52.1842C36.3033 49.6004 34.5309 45.7281 34.4414 41.5604C34.4244 40.7637 33.7734 40.1266 32.9766 40.1266H31.8107C30.9193 40.1266 30.1939 39.4014 30.1939 38.5098V35.0941C30.1939 34.6025 30.4156 34.1471 30.7885 33.8436C31.3051 33.8893 32.2695 34.0441 33.0875 34.5637C33.0957 34.5689 33.1037 34.574 33.1119 34.5793C33.2273 34.6539 33.3395 34.7361 33.4471 34.8262C33.4596 34.8365 33.4721 34.8471 33.4844 34.8578C33.5367 34.9029 33.5881 34.9494 33.6379 34.9986C33.6814 35.0416 33.727 35.0816 33.7734 35.1199C33.7871 35.1312 33.801 35.1418 33.8148 35.1527C33.85 35.1803 33.8857 35.2064 33.9223 35.2313C33.9367 35.241 33.9508 35.251 33.9654 35.2604C34.015 35.2924 34.0652 35.3227 34.117 35.3498C34.1172 35.35 34.1176 35.3502 34.1178 35.3504C34.1703 35.3779 34.224 35.4025 34.2785 35.4252C34.2936 35.4314 34.3088 35.4371 34.324 35.443C34.3654 35.4592 34.407 35.4738 34.4492 35.4871C34.465 35.4922 34.4807 35.4973 34.4967 35.5018C34.552 35.5178 34.6076 35.5318 34.6639 35.543C34.6648 35.5432 34.6656 35.5434 34.6666 35.5436C34.7244 35.5549 34.7828 35.5629 34.8414 35.5691C34.8572 35.5709 34.873 35.5719 34.8887 35.573C34.933 35.5768 34.9775 35.5789 35.0223 35.5795C35.0324 35.5797 35.0424 35.5809 35.0523 35.5809C35.0588 35.5809 35.0654 35.5799 35.0719 35.5799C35.1295 35.5793 35.1873 35.577 35.2451 35.5715C35.2467 35.5713 35.2482 35.5713 35.2496 35.5713C35.3088 35.5654 35.368 35.5563 35.427 35.5449C35.4436 35.5418 35.4602 35.5379 35.4768 35.5344C35.5205 35.5248 35.5641 35.5139 35.6076 35.5016C35.6248 35.4967 35.642 35.492 35.6592 35.4865C35.717 35.4682 35.7744 35.4482 35.8312 35.4246C36.5867 35.1092 37.0748 34.3771 37.0748 33.5592V30.0549C40.8479 31.2432 45.4871 31.8576 50.0018 31.8576C54.5164 31.8576 59.1557 31.2432 62.9287 30.0549V33.5592C62.9287 34.3771 63.4168 35.1094 64.1723 35.4246C64.2293 35.4484 64.2871 35.4686 64.3451 35.4869C64.3615 35.492 64.3779 35.4965 64.3943 35.5014C64.4389 35.5141 64.4836 35.5254 64.5285 35.535C64.5441 35.5383 64.5598 35.542 64.5756 35.5449C64.6941 35.5676 64.8137 35.5791 64.9328 35.5801C64.9389 35.5801 64.9451 35.5811 64.9512 35.5811C64.9605 35.5811 64.9699 35.5799 64.9795 35.5797C65.0254 35.5791 65.0711 35.5768 65.1168 35.573C65.1316 35.5719 65.1465 35.5709 65.1613 35.5693C65.2785 35.557 65.3943 35.5344 65.5076 35.5016C65.523 35.4971 65.5383 35.4922 65.5537 35.4873C65.5963 35.474 65.6383 35.459 65.6801 35.4428C65.6951 35.4369 65.7104 35.4313 65.7252 35.425C65.7797 35.4023 65.8336 35.3777 65.8861 35.3502C65.8865 35.35 65.8869 35.3498 65.8873 35.3496C65.9389 35.3225 65.9891 35.2922 66.0385 35.2604C66.0531 35.251 66.0674 35.2408 66.082 35.2311C66.1184 35.2062 66.1541 35.1801 66.1891 35.1527C66.2031 35.1418 66.2172 35.1311 66.2309 35.1197C66.2773 35.0812 66.3228 35.0414 66.3662 34.9984C66.4154 34.9496 66.4666 34.9037 66.5184 34.859C66.5318 34.8473 66.5455 34.8357 66.5592 34.8242C66.6072 34.784 66.6559 34.7451 66.7057 34.7082C66.7104 34.7047 66.7146 34.7012 66.7193 34.6977C66.7732 34.658 66.8281 34.6209 66.8836 34.5848C66.8984 34.575 66.9135 34.5656 66.9285 34.5561C66.9779 34.525 67.0279 34.4949 67.0781 34.4664C67.0854 34.4623 67.0926 34.4578 67.1 34.4537C67.1572 34.4219 67.2148 34.3918 67.2729 34.3631C67.2873 34.3559 67.3018 34.349 67.3162 34.342C67.3682 34.317 67.4203 34.2928 67.4725 34.2701C67.4797 34.267 67.4867 34.2637 67.4939 34.2605C67.5541 34.2348 67.6143 34.2107 67.6742 34.1879C67.685 34.1838 67.6955 34.1799 67.7062 34.176C67.7633 34.1547 67.8201 34.1346 67.8768 34.1158C67.8799 34.1148 67.883 34.1137 67.8861 34.1127C67.9496 34.0918 68.0127 34.0725 68.075 34.0545C68.0773 34.0539 68.0797 34.0531 68.082 34.0525C68.5283 33.9244 68.9373 33.868 69.2154 33.8432C69.5885 34.1469 69.8102 34.6021 69.8102 35.0939V38.5096C69.8102 39.4012 69.0848 40.1264 68.1934 40.1264H67.0275C66.2305 40.1264 65.5797 40.7635 65.5627 41.5602C65.4732 45.7279 63.7008 49.6002 60.6998 52.184C57.5879 54.8635 53.9891 56.2465 50.0023 56.2945C46.0152 56.2467 42.4166 54.8639 39.3043 52.1842ZM42.7268 72.0711C42.4922 72.1703 42.2256 72.0951 42.0779 71.8887L36.1689 63.6199L37.7059 63.3344C37.7895 63.3191 37.8764 63.3391 37.9445 63.39L38.3279 63.6766C38.3301 63.6781 38.332 63.6797 38.3342 63.6813L47.0828 70.2205L42.7268 72.0711ZM46.4145 97.0693L49.0877 77.8588H50.9158L53.5891 97.0693H46.4145ZM83.7527 97.0693H77.8918V85.1879C77.8918 84.3785 77.2357 83.7227 76.4266 83.7227C75.6174 83.7227 74.9613 84.3785 74.9613 85.1879V97.0693H56.5482L53.734 76.8471L55.6852 74.5787L56.1314 74.7684C56.5771 74.9576 57.041 75.0486 57.4982 75.0486C58.5879 75.0486 59.6393 74.5312 60.3102 73.5922L67.0146 64.2102L75.4641 65.7797C75.9049 65.9119 76.3352 66.0664 76.7562 66.2377C75.2066 67.9689 75.0916 70.6234 76.5963 72.4896L78.191 74.4674C79.001 75.4719 80.1535 76.1008 81.4365 76.2383C81.6119 76.2572 81.7869 76.2666 81.9609 76.2666C83.0482 76.2666 84.0949 75.9012 84.9572 75.2156C85.365 76.5488 85.5768 77.9443 85.5768 79.3725V95.2451H85.577C85.5771 96.251 84.7586 97.0693 83.7527 97.0693Z" fill="#163074"/>
<path d="M70.001 83.7227H62.2844C60.9644 83.7227 59.8906 84.7965 59.8906 86.1164V90.2275C59.8906 91.5475 60.9644 92.6213 62.2844 92.6213H70.001C71.3209 92.6213 72.3945 91.5475 72.3945 90.2275V86.1164C72.3945 84.7963 71.3207 83.7227 70.001 83.7227ZM62.8209 89.6904V86.6531H69.4637V89.6904H62.8209Z" fill="#163074"/>
<path d="M37.7156 83.7222H29.999C28.6791 83.7222 27.6055 84.796 27.6055 86.1159V90.2271C27.6055 91.547 28.6793 92.6208 29.999 92.6208H37.7156C39.0355 92.6208 40.1094 91.547 40.1094 90.2271V86.1159C40.1096 84.796 39.0355 83.7222 37.7156 83.7222ZM37.1789 89.6901H30.5361V86.6528H37.1789V89.6901Z" fill="#163074"/>
</svg>
