<svg width="100" height="100" viewBox="0 0 100 100" fill="none" xmlns="http://www.w3.org/2000/svg">
<path d="M100 7.15495C100 3.47828 97.01 0.488281 93.3333 0.488281H6.66667C2.99 0.488281 0 3.47828 0 7.15495C0 10.2533 2.13333 12.8399 5 13.5849V94.5116L10 89.5116L20 99.5116L30 89.5116L40 99.5116L50 89.5116L60 99.5116L70 89.5116L80 99.5116L90 89.5116L95 94.5116V13.5849C97.8667 12.8399 100 10.2533 100 7.15495ZM91.6667 86.465L90 84.7983L80 94.7983L70 84.7983L60 94.7983L50 84.7983L40 94.7983L30 84.7983L20 94.7983L10 84.7983L8.33333 86.465V13.8216V8.82162H91.6667V13.8216V86.465ZM95 10.0399V5.48828H5V10.0399C4.005 9.46495 3.33333 8.38661 3.33333 7.15495C3.33333 5.31661 4.82833 3.82161 6.66667 3.82161H93.3333C95.1717 3.82161 96.6667 5.31661 96.6667 7.15495C96.6667 8.38661 95.995 9.46495 95 10.0399Z" fill="#163074"/>
<path d="M73.3346 67.1548H48.3346C47.4146 67.1548 46.668 67.8998 46.668 68.8214C46.668 69.7431 47.4146 70.4881 48.3346 70.4881H73.3346C74.2546 70.4881 75.0013 69.7431 75.0013 68.8214C75.0013 67.8998 74.2546 67.1548 73.3346 67.1548Z" fill="#163074"/>
<path d="M80.4833 67.6383C80.1833 67.9533 80 68.3699 80 68.8216C80 69.2549 80.1833 69.6883 80.4833 70.0049C80.8 70.3049 81.2333 70.4883 81.6667 70.4883C82.1 70.4883 82.5333 70.3049 82.85 70.0049C83.15 69.6883 83.3333 69.2549 83.3333 68.8216C83.3333 68.3699 83.15 67.9533 82.85 67.6383C82.2167 67.0216 81.1167 67.0216 80.4833 67.6383Z" fill="#163074"/>
<path d="M81.6667 43.8218H56.6667C55.7467 43.8218 55 44.5668 55 45.4884C55 46.4101 55.7467 47.1551 56.6667 47.1551H81.6667C82.5867 47.1551 83.3333 46.4101 83.3333 45.4884C83.3333 44.5668 82.5867 43.8218 81.6667 43.8218Z" fill="#163074"/>
<path d="M81.6654 55.4883H64.9987C64.0787 55.4883 63.332 56.2333 63.332 57.1549C63.332 58.0766 64.0787 58.8216 64.9987 58.8216H81.6654C82.5854 58.8216 83.332 58.0766 83.332 57.1549C83.332 56.2333 82.5854 55.4883 81.6654 55.4883Z" fill="#163074"/>
<path d="M46.668 57.1549C46.668 58.0766 47.4146 58.8216 48.3346 58.8216H51.668C52.588 58.8216 53.3346 58.0766 53.3346 57.1549C53.3346 56.2333 52.588 55.4883 51.668 55.4883H48.3346C47.4146 55.4883 46.668 56.2333 46.668 57.1549Z" fill="#163074"/>
<path d="M75.0013 33.8215C75.0013 32.8998 74.2546 32.1548 73.3346 32.1548H48.3346C47.4146 32.1548 46.668 32.8998 46.668 33.8215C46.668 34.7431 47.4146 35.4881 48.3346 35.4881H73.3346C74.2546 35.4881 75.0013 34.7431 75.0013 33.8215Z" fill="#163074"/>
<path d="M80.4833 32.6383C80.1833 32.9533 80 33.3699 80 33.8216C80 34.2549 80.1833 34.6883 80.4833 35.0049C80.8 35.3049 81.2333 35.4883 81.6667 35.4883C82.1167 35.4883 82.5333 35.3049 82.85 35.0049C83.15 34.6883 83.3333 34.2549 83.3333 33.8216C83.3333 33.3883 83.15 32.9533 82.85 32.6383C82.2333 32.0216 81.1 32.0216 80.4833 32.6383Z" fill="#163074"/>
<path d="M51.182 46.6719C51.482 46.3553 51.6654 45.9386 51.6654 45.4886C51.6654 45.0369 51.482 44.6203 51.182 44.3053C50.5654 43.6886 49.4487 43.6886 48.8154 44.3053C48.5154 44.6203 48.332 45.0369 48.332 45.4886C48.332 45.9386 48.5154 46.3553 48.8154 46.6719C49.132 46.9719 49.5654 47.1553 49.9987 47.1553C50.432 47.1553 50.8654 46.9719 51.182 46.6719Z" fill="#163074"/>
<path d="M59.518 58.3384C59.818 58.0218 60.0013 57.6051 60.0013 57.1551C60.0013 56.7034 59.818 56.2718 59.518 55.9718C58.9013 55.3551 57.7846 55.3551 57.1513 55.9718C56.8513 56.2868 56.668 56.7218 56.668 57.1551C56.668 57.5884 56.8513 58.0218 57.1513 58.3384C57.468 58.6384 57.9013 58.8218 58.3346 58.8218C58.768 58.8218 59.2013 58.6384 59.518 58.3384Z" fill="#163074"/>
<path d="M28.332 35.6565V33.8215C28.332 32.8998 27.5854 32.1548 26.6654 32.1548C25.7454 32.1548 24.9987 32.8998 24.9987 33.8215V35.6615C23.1804 36.0315 21.5237 36.9965 20.302 38.4415C19.2837 39.6448 18.812 41.1848 18.9787 42.7798C19.1487 44.4115 19.9887 45.9248 21.2837 46.9315L24.9987 49.8215V58.8848C23.0637 58.1948 21.6654 56.3615 21.6654 54.1915C21.6654 53.2698 20.9187 52.5248 19.9987 52.5248C19.0787 52.5248 18.332 53.2698 18.332 54.1915C18.332 58.2148 21.2004 61.5815 24.9987 62.3565V63.8198C24.9987 64.7415 25.7454 65.4865 26.6654 65.4865C27.5854 65.4865 28.332 64.7415 28.332 63.8198V62.3498C30.1504 61.9798 31.807 61.0148 33.0304 59.5698C34.0487 58.3631 34.5187 56.8231 34.352 55.2281C34.1804 53.5981 33.342 52.0865 32.047 51.0815L28.332 48.1931V39.1298C30.267 39.8198 31.6654 41.6531 31.6654 43.8231C31.6654 44.7448 32.412 45.4898 33.332 45.4898C34.252 45.4898 34.9987 44.7448 34.9987 43.8231C34.9987 39.7981 32.1304 36.4315 28.332 35.6565ZM30.0004 53.7131C30.582 54.1648 30.9604 54.8465 31.037 55.5765C31.1087 56.2598 30.912 56.9148 30.4854 57.4181C29.9054 58.1031 29.1554 58.5831 28.332 58.8765V52.4131L30.0004 53.7131ZM23.3304 44.3015C22.747 43.8481 22.3704 43.1665 22.2937 42.4348C22.2237 41.7531 22.4187 41.0998 22.8454 40.5948C23.4254 39.9098 24.1754 39.4298 24.9987 39.1365V45.5981L23.3304 44.3015Z" fill="#163074"/>
<path d="M66.6667 20.4884C67.5871 20.4884 68.3333 19.7422 68.3333 18.8217C68.3333 17.9012 67.5871 17.155 66.6667 17.155C65.7462 17.155 65 17.9012 65 18.8217C65 19.7422 65.7462 20.4884 66.6667 20.4884Z" fill="#163074"/>
<path d="M59.9987 20.4884C60.9192 20.4884 61.6654 19.7422 61.6654 18.8217C61.6654 17.9012 60.9192 17.155 59.9987 17.155C59.0782 17.155 58.332 17.9012 58.332 18.8217C58.332 19.7422 59.0782 20.4884 59.9987 20.4884Z" fill="#163074"/>
<path d="M73.3346 20.4884C74.2551 20.4884 75.0013 19.7422 75.0013 18.8217C75.0013 17.9012 74.2551 17.155 73.3346 17.155C72.4142 17.155 71.668 17.9012 71.668 18.8217C71.668 19.7422 72.4142 20.4884 73.3346 20.4884Z" fill="#163074"/>
<path d="M53.3346 20.4884C54.2551 20.4884 55.0013 19.7422 55.0013 18.8217C55.0013 17.9012 54.2551 17.155 53.3346 17.155C52.4142 17.155 51.668 17.9012 51.668 18.8217C51.668 19.7422 52.4142 20.4884 53.3346 20.4884Z" fill="#163074"/>
<path d="M79.9987 20.4884C80.9192 20.4884 81.6654 19.7422 81.6654 18.8217C81.6654 17.9012 80.9192 17.155 79.9987 17.155C79.0782 17.155 78.332 17.9012 78.332 18.8217C78.332 19.7422 79.0782 20.4884 79.9987 20.4884Z" fill="#163074"/>
<path d="M33.3346 20.4884C34.2551 20.4884 35.0013 19.7422 35.0013 18.8217C35.0013 17.9012 34.2551 17.155 33.3346 17.155C32.4142 17.155 31.668 17.9012 31.668 18.8217C31.668 19.7422 32.4142 20.4884 33.3346 20.4884Z" fill="#163074"/>
<path d="M39.9987 20.4884C40.9192 20.4884 41.6654 19.7422 41.6654 18.8217C41.6654 17.9012 40.9192 17.155 39.9987 17.155C39.0782 17.155 38.332 17.9012 38.332 18.8217C38.332 19.7422 39.0782 20.4884 39.9987 20.4884Z" fill="#163074"/>
<path d="M46.6667 20.4884C47.5871 20.4884 48.3333 19.7422 48.3333 18.8217C48.3333 17.9012 47.5871 17.155 46.6667 17.155C45.7462 17.155 45 17.9012 45 18.8217C45 19.7422 45.7462 20.4884 46.6667 20.4884Z" fill="#163074"/>
<path d="M86.6667 20.4884C87.5871 20.4884 88.3333 19.7422 88.3333 18.8217C88.3333 17.9012 87.5871 17.155 86.6667 17.155C85.7462 17.155 85 17.9012 85 18.8217C85 19.7422 85.7462 20.4884 86.6667 20.4884Z" fill="#163074"/>
<path d="M26.6667 20.4884C27.5871 20.4884 28.3333 19.7422 28.3333 18.8217C28.3333 17.9012 27.5871 17.155 26.6667 17.155C25.7462 17.155 25 17.9012 25 18.8217C25 19.7422 25.7462 20.4884 26.6667 20.4884Z" fill="#163074"/>
<path d="M19.9987 20.4884C20.9192 20.4884 21.6654 19.7422 21.6654 18.8217C21.6654 17.9012 20.9192 17.155 19.9987 17.155C19.0782 17.155 18.332 17.9012 18.332 18.8217C18.332 19.7422 19.0782 20.4884 19.9987 20.4884Z" fill="#163074"/>
<path d="M13.3346 20.4884C14.2551 20.4884 15.0013 19.7422 15.0013 18.8217C15.0013 17.9012 14.2551 17.155 13.3346 17.155C12.4142 17.155 11.668 17.9012 11.668 18.8217C11.668 19.7422 12.4142 20.4884 13.3346 20.4884Z" fill="#163074"/>
</svg>
