<svg width="103" height="103" viewBox="0 0 103 103" fill="none" xmlns="http://www.w3.org/2000/svg">
<path d="M83.2852 29.9243C84.396 29.9243 85.2969 29.0237 85.2969 27.9126V6.03516C85.2969 2.70737 82.5895 0 79.2617 0H6.03516C2.70737 0 0 2.70737 0 6.03516V96.9648C0 100.293 2.70737 103 6.03516 103H79.2617C82.5895 103 85.2969 100.293 85.2969 96.9648V82.1441C85.2969 81.033 84.396 80.1324 83.2852 80.1324C82.1743 80.1324 81.2734 81.033 81.2734 82.1441V96.9648C81.2734 98.0741 80.371 98.9766 79.2617 98.9766H6.03516C4.92589 98.9766 4.02344 98.0741 4.02344 96.9648V6.03516C4.02344 4.92589 4.92589 4.02344 6.03516 4.02344H79.2617C80.371 4.02344 81.2734 4.92589 81.2734 6.03516V27.9126C81.2734 29.0237 82.1743 29.9243 83.2852 29.9243Z" fill="#163074"/>
<path d="M42.6484 10.8633C32.4432 10.8633 24.1406 19.1658 24.1406 29.3711C24.1406 34.6653 26.3756 39.4468 29.9509 42.8233C30.0179 42.8949 30.0891 42.9627 30.1669 43.0244C33.4603 46.0378 37.8432 47.8787 42.6482 47.8787C47.4532 47.8787 51.8362 46.0376 55.1295 43.0244C55.2074 42.9627 55.2786 42.8947 55.3456 42.8233C58.9212 39.4468 61.1562 34.6653 61.1562 29.3711C61.1562 19.1658 52.8537 10.8633 42.6484 10.8633ZM42.6484 43.8555C39.3635 43.8555 36.3318 42.7547 33.8993 40.9047C35.6674 37.7694 38.9668 35.8086 42.6484 35.8086C46.3301 35.8086 49.6295 37.7694 51.3976 40.9047C48.9648 42.7547 45.9334 43.8555 42.6484 43.8555ZM39.4297 28.5664V27.2588C39.4297 25.4841 40.8737 24.04 42.6484 24.04C44.4232 24.04 45.8672 25.4841 45.8672 27.2588V28.5664C45.8672 30.3411 44.4232 31.7852 42.6484 31.7852C40.8737 31.7852 39.4297 30.3411 39.4297 28.5664ZM54.3043 37.9577C52.8207 35.7573 50.7645 34.0459 48.3772 32.9894C49.3247 31.7648 49.8906 30.2309 49.8906 28.5664V27.2588C49.8906 23.2653 46.6419 20.0166 42.6484 20.0166C38.655 20.0166 35.4062 23.2653 35.4062 27.2588V28.5664C35.4062 30.2309 35.9721 31.7648 36.9197 32.9894C34.5324 34.0459 32.4762 35.7573 30.9925 37.9577C29.2164 35.5531 28.1641 32.5832 28.1641 29.3711C28.1641 21.3844 34.6617 14.8867 42.6484 14.8867C50.6352 14.8867 57.1328 21.3844 57.1328 29.3711C57.1328 32.5832 56.0805 35.5531 54.3043 37.9577Z" fill="#163074"/>
<path d="M53.5117 88.1133H42.6484C41.5376 88.1133 40.6367 89.0139 40.6367 90.125C40.6367 91.2361 41.5376 92.1367 42.6484 92.1367H53.5117C54.6226 92.1367 55.5234 91.2361 55.5234 90.125C55.5234 89.0139 54.6226 88.1133 53.5117 88.1133Z" fill="#163074"/>
<path d="M53.5117 76.8477H24.9453C23.8344 76.8477 22.9336 77.7483 22.9336 78.8594C22.9336 79.9704 23.8344 80.8711 24.9453 80.8711H53.5117C54.6226 80.8711 55.5234 79.9704 55.5234 78.8594C55.5234 77.7483 54.6226 76.8477 53.5117 76.8477Z" fill="#163074"/>
<path d="M53.5117 65.582H24.9453C23.8344 65.582 22.9336 66.4827 22.9336 67.5938C22.9336 68.7048 23.8344 69.6055 24.9453 69.6055H53.5117C54.6226 69.6055 55.5234 68.7048 55.5234 67.5938C55.5234 66.4827 54.6226 65.582 53.5117 65.582Z" fill="#163074"/>
<path d="M17.7757 54.9058C17.4017 54.5317 16.8827 54.3164 16.3516 54.3164C15.8223 54.3164 15.3033 54.5317 14.9293 54.9058C14.5551 55.28 14.3398 55.799 14.3398 56.3281C14.3398 56.8572 14.5549 57.3762 14.9293 57.7504C15.3055 58.1246 15.8223 58.3398 16.3516 58.3398C16.8827 58.3398 17.3997 58.1246 17.7757 57.7504C18.1498 57.3762 18.3653 56.8572 18.3653 56.3281C18.3653 55.799 18.15 55.28 17.7757 54.9058Z" fill="#163074"/>
<path d="M17.7757 66.1715C17.3997 65.7973 16.8827 65.582 16.3516 65.582C15.8223 65.582 15.3055 65.7973 14.9293 66.1715C14.5551 66.5456 14.3398 67.0647 14.3398 67.5938C14.3398 68.1228 14.5549 68.6419 14.9293 69.016C15.3055 69.3902 15.8223 69.6055 16.3516 69.6055C16.8827 69.6055 17.3997 69.3902 17.7757 69.016C18.1498 68.6419 18.3653 68.1228 18.3653 67.5938C18.3653 67.0647 18.15 66.5456 17.7757 66.1715Z" fill="#163074"/>
<path d="M17.7757 77.4371C17.3997 77.0629 16.8827 76.8477 16.3516 76.8477C15.8223 76.8477 15.3055 77.0629 14.9293 77.4371C14.5551 77.8113 14.3398 78.3303 14.3398 78.8594C14.3398 79.3885 14.5549 79.9075 14.9293 80.2817C15.3033 80.6558 15.8223 80.8711 16.3516 80.8711C16.8827 80.8711 17.4017 80.6558 17.7757 80.2817C18.1498 79.9075 18.3653 79.3885 18.3653 78.8594C18.3653 78.3303 18.15 77.8113 17.7757 77.4371Z" fill="#163074"/>
<path d="M53.5117 54.3164H24.9453C23.8344 54.3164 22.9336 55.2171 22.9336 56.3281C22.9336 57.4392 23.8344 58.3398 24.9453 58.3398H53.5117C54.6226 58.3398 55.5234 57.4392 55.5234 56.3281C55.5234 55.2171 54.6226 54.3164 53.5117 54.3164Z" fill="#163074"/>
<path d="M98.7764 26.2166C96.822 25.0883 94.5452 24.7885 92.3649 25.3725C90.185 25.9567 88.3627 27.3549 87.2346 29.3092L61.9187 73.1573C61.7801 73.3977 61.6924 73.6642 61.6616 73.94L59.8796 89.9018C59.7911 90.696 60.181 91.4675 60.873 91.8673C61.1854 92.0475 61.5324 92.1368 61.8787 92.1368C62.2995 92.1368 62.7188 92.0051 63.0718 91.745L76.0039 82.2207C76.2274 82.0561 76.4145 81.8471 76.5531 81.6067L101.869 37.7587C104.198 33.724 102.811 28.5462 98.7764 26.2166ZM64.3883 85.7784L65.3189 77.4435L71.1412 80.805L64.3883 85.7784ZM74.0747 77.8526L66.4091 73.4268L86.7244 38.2399L94.39 42.6657L74.0747 77.8526ZM98.3845 35.7467L96.4016 39.1814L88.7359 34.7556L90.7189 31.321C91.3099 30.2972 92.2643 29.5649 93.4061 29.259C94.5484 28.9528 95.7409 29.1101 96.7645 29.7011C97.7882 30.2922 98.5205 31.2465 98.8265 32.3884C99.1325 33.5302 98.9756 34.723 98.3845 35.7467Z" fill="#163074"/>
</svg>
