<svg width="103" height="103" viewBox="0 0 103 103" fill="none" xmlns="http://www.w3.org/2000/svg">
<path d="M75.2692 98.9119V102.873H27.7308V98.9119C27.7308 96.7291 29.5095 94.9503 31.6923 94.9503H39.6669C39.8768 90.0063 43.0857 85.8784 47.5385 84.2978V37.8487C45.4507 36.5295 44.0523 34.216 44.0523 31.5618H47.5385H55.4615H58.9477C58.9477 34.216 57.5493 36.5295 55.4615 37.8487V84.2938C59.9143 85.8745 63.1232 90.0024 63.3331 94.9464H71.3077C73.4905 94.9503 75.2692 96.7291 75.2692 98.9119ZM103 63.2541C100.096 71.4307 92.3633 77.3294 83.1923 77.3294C74.0213 77.3294 66.2884 71.4267 63.3846 63.2541H67.9562L81.3383 27.7864C81.9167 26.2414 84.464 26.2414 85.0463 27.7864L98.4284 63.2541H103ZM94.1935 63.2541L83.1923 34.1011L72.1911 63.258H94.1935V63.2541ZM19.8077 23.6823C21.6023 23.6823 23.0641 22.4819 23.5712 20.8537C24.8824 20.3546 26.2254 19.6811 27.604 18.9839C30.6346 17.4547 34.0692 15.7156 37.6346 15.7156C41.0574 15.7156 43.1966 17.2963 44.4207 18.6432C44.3732 18.9839 44.3177 19.3246 44.3177 19.6771C44.3177 23.6426 47.5345 26.8594 51.5 26.8594C55.4655 26.8594 58.6823 23.6426 58.6823 19.6771C58.6823 19.3246 58.6268 18.9878 58.5793 18.6471C59.7994 17.3042 61.9387 15.7156 65.3654 15.7156C68.9308 15.7156 72.3654 17.4508 75.392 18.9799C76.7746 19.6771 78.1176 20.3506 79.4288 20.8498C79.9359 22.478 81.3977 23.6783 83.1923 23.6783C85.4028 23.6783 87.1935 21.8877 87.1935 19.6771C87.1935 17.4666 85.4028 15.676 83.1923 15.676C82.0514 15.676 81.0333 16.1672 80.3043 16.9358C79.3259 16.5238 78.2681 15.9969 77.1787 15.4462C73.7559 13.715 69.8776 11.7541 65.3654 11.7541C61.4197 11.7541 58.6704 13.2555 56.8045 14.8718C55.9686 13.9488 54.899 13.2595 53.6828 12.8673C55.1605 12.075 56.1984 10.5656 56.1984 8.77895C56.1984 6.18415 51.5 0.126953 51.5 0.126953C51.5 0.126953 46.8016 6.18415 46.8016 8.77895C46.8016 10.5696 47.8395 12.075 49.3172 12.8673C48.101 13.2555 47.0314 13.9488 46.1955 14.8718C44.3296 13.2555 41.5803 11.7541 37.6346 11.7541C33.1224 11.7541 29.2401 13.715 25.8173 15.4462C24.7279 16.0008 23.6742 16.5277 22.6957 16.9358C21.9667 16.1712 20.9486 15.676 19.8077 15.676C17.5972 15.676 15.8065 17.4666 15.8065 19.6771C15.8065 21.8877 17.5972 23.6823 19.8077 23.6823ZM19.8077 77.3334C10.6367 77.3334 2.90381 71.4307 0 63.258H4.57162L17.9537 27.7904C18.5321 26.2454 21.0793 26.2454 21.6617 27.7904L35.0438 63.258H39.6154C36.7116 71.4307 28.9787 77.3334 19.8077 77.3334ZM30.8089 63.2541L19.8077 34.1011L8.8065 63.258H30.8089V63.2541Z" fill="#163074"/>
</svg>
