<svg width="100" height="100" viewBox="0 0 100 100" fill="none" xmlns="http://www.w3.org/2000/svg">
<g clip-path="url(#clip0)">
<path d="M10.3438 75.8623H41.3782V82.7589H10.3438V75.8623Z" fill="#163074"/>
<path d="M68.964 51.724C78.4712 51.724 86.2054 43.9898 86.2054 34.4826C86.2054 24.9754 78.4712 17.2412 68.964 17.2412C59.4569 17.2412 51.7227 24.9754 51.7227 34.4826C51.7227 43.9898 59.4569 51.724 68.964 51.724ZM73.8401 41.7117L71.4021 39.2736L73.8401 36.8365L76.2781 39.2736L73.8401 41.7117ZM64.088 27.0809L66.526 29.519L64.088 31.957L61.6499 29.519L64.088 27.0809ZM76.2798 24.6429L78.7179 27.0809L61.6482 44.148L59.2102 41.7117L76.2798 24.6429Z" fill="#163074"/>
<path d="M10.3438 55.1724H41.3782V62.0689H10.3438V55.1724Z" fill="#163074"/>
<path d="M10.3438 34.4829H41.3782V41.3795H10.3438V34.4829Z" fill="#163074"/>
<path d="M24.1383 31.0345C32.695 31.0345 39.6556 24.0739 39.6556 15.5172C39.6556 6.96053 32.695 0 24.1383 0C15.5816 0 8.62109 6.96053 8.62109 15.5172C8.62109 24.0739 15.5816 31.0345 24.1383 31.0345ZM24.1383 17.2414C21.2869 17.2414 18.9659 14.9204 18.9659 12.069C18.9659 9.82455 20.4122 7.92783 22.4142 7.21393V3.44828H25.8625V7.21393C27.8644 7.92783 29.3107 9.82455 29.3107 12.069H25.8625C25.8625 11.1177 25.0896 10.3448 24.1383 10.3448C23.187 10.3448 22.4142 11.1177 22.4142 12.069C22.4142 13.0203 23.187 13.7931 24.1383 13.7931C26.9897 13.7931 29.3107 16.1141 29.3107 18.9655C29.3107 21.2099 27.8644 23.1066 25.8625 23.8205V27.5862H22.4142V23.8205C20.4122 23.1066 18.9659 21.2099 18.9659 18.9655H22.4142C22.4142 19.9168 23.187 20.6897 24.1383 20.6897C25.0896 20.6897 25.8625 19.9168 25.8625 18.9655C25.8625 18.0142 25.0896 17.2414 24.1383 17.2414Z" fill="#163074"/>
<path d="M6.89844 44.8276H37.9329V51.7242H6.89844V44.8276Z" fill="#163074"/>
<path d="M6.89844 65.5171H37.9329V72.4136H6.89844V65.5171Z" fill="#163074"/>
<path d="M55.1719 93.1035H86.2064V100H55.1719V93.1035Z" fill="#163074"/>
<path d="M51.7227 62.0688H82.7571V68.9654H51.7227V62.0688Z" fill="#163074"/>
<path d="M51.7227 82.7588H82.7571V89.6553H51.7227V82.7588Z" fill="#163074"/>
<path d="M55.1719 72.4136H86.2064V79.3101H55.1719V72.4136Z" fill="#163074"/>
<path d="M68.9661 58.6206C82.2768 58.6206 93.104 47.7934 93.104 34.4827C93.104 21.1719 82.2768 10.3447 68.9661 10.3447C55.6553 10.3447 44.8281 21.1719 44.8281 34.4827C44.8281 47.7934 55.6553 58.6206 68.9661 58.6206ZM68.9661 13.793C80.375 13.793 89.6557 23.0737 89.6557 34.4827C89.6557 45.8916 80.375 55.1723 68.9661 55.1723C57.5571 55.1723 48.2764 45.8916 48.2764 34.4827C48.2764 23.0737 57.5571 13.793 68.9661 13.793Z" fill="#163074"/>
</g>
<defs>
<clipPath id="clip0">
<rect width="100" height="100" fill="white"/>
</clipPath>
</defs>
</svg>
