<svg width="21" height="17" viewBox="0 0 21 17" fill="none" xmlns="http://www.w3.org/2000/svg">
<path d="M20.0826 1.56264L17.0279 15.8478C16.9081 16.3569 16.6985 16.6863 16.399 16.8361C16.1294 16.9559 15.785 16.896 15.3658 16.6564L10.7388 13.2423L8.49273 15.3986C8.34299 15.5483 8.2232 15.6531 8.13336 15.713C7.98362 15.8029 7.78895 15.8478 7.54937 15.8478L7.90875 11.131L16.4888 3.35951C16.6086 3.26967 16.6386 3.1948 16.5787 3.13491C16.5487 3.04506 16.4589 3.01511 16.3091 3.04506C16.1893 3.04506 16.0546 3.08998 15.9048 3.17983L5.30328 9.87319L0.721246 8.43569C0.212131 8.28595 -0.0274523 8.06134 0.00249566 7.76186C0.0324436 7.46238 0.346897 7.19285 0.945855 6.95326L18.7798 0.0802176C19.2291 -0.0695219 19.5884 -0.00962612 19.858 0.259905C20.1275 0.499488 20.2024 0.933733 20.0826 1.56264Z" fill="white"/>
</svg>
