<svg width="103" height="103" viewBox="0 0 103 103" fill="none" xmlns="http://www.w3.org/2000/svg">
<path d="M96.9648 58.7925V9.25391C96.9648 7.58717 95.614 6.23633 93.9473 6.23633H78.6582V3.01758C78.6582 1.35084 77.3074 0 75.6406 0C73.9739 0 72.623 1.35084 72.623 3.01758V6.23633H60.5527V3.01758C60.5527 1.35084 59.2019 0 57.5352 0C55.8684 0 54.5176 1.35084 54.5176 3.01758V6.23633H42.4473V3.01758C42.4473 1.35084 41.0964 0 39.4297 0C37.7629 0 36.4121 1.35084 36.4121 3.01758V6.23633H24.3418V3.01758C24.3418 1.35084 22.991 0 21.3242 0C19.6575 0 18.3066 1.35084 18.3066 3.01758V6.23633H3.01758C1.35084 6.23633 0 7.58717 0 9.25391V87.9121C0 89.5788 1.35084 90.9297 3.01758 90.9297H53.2713C58.1497 98.2025 66.4457 103 75.8418 103C90.8165 103 103 90.8165 103 75.8418C103 69.3902 100.737 63.4572 96.9648 58.7925ZM18.3066 12.2715V15.2891C18.3066 16.9558 19.6575 18.3066 21.3242 18.3066C22.991 18.3066 24.3418 16.9558 24.3418 15.2891V12.2715H36.4121V15.2891C36.4121 16.9558 37.7629 18.3066 39.4297 18.3066C41.0964 18.3066 42.4473 16.9558 42.4473 15.2891V12.2715H54.5176V15.2891C54.5176 16.9558 55.8684 18.3066 57.5352 18.3066C59.2019 18.3066 60.5527 16.9558 60.5527 15.2891V12.2715H72.623V15.2891C72.623 16.9558 73.9739 18.3066 75.6406 18.3066C77.3074 18.3066 78.6582 16.9558 78.6582 15.2891V12.2715H90.9297V24.3418H6.03516V12.2715H18.3066ZM6.03516 84.8945V30.377H90.9297V53.2713C86.6116 50.3755 81.4204 48.6836 75.8418 48.6836C66.3066 48.6836 57.9045 53.6241 53.0575 61.0785C52.6497 60.8726 52.19 60.7539 51.7012 60.7539H45.666C43.9993 60.7539 42.6484 62.1047 42.6484 63.7715C42.6484 65.4382 43.9993 66.7891 45.666 66.7891H50.2372C49.5559 68.7112 49.0844 70.7323 48.8525 72.8242H45.666C43.9993 72.8242 42.6484 74.1751 42.6484 75.8418C42.6484 77.5085 43.9993 78.8594 45.666 78.8594H48.8525C49.0844 80.9512 49.5551 82.9724 50.2372 84.8945H6.03516ZM75.8418 96.9648C64.1943 96.9648 54.7188 87.4893 54.7188 75.8418C54.7188 64.1943 64.1943 54.7188 75.8418 54.7188C87.4893 54.7188 96.9648 64.1943 96.9648 75.8418C96.9648 87.4893 87.4893 96.9648 75.8418 96.9648Z" fill="#163074"/>
<path d="M87.9121 72.8242H78.8594V63.7715C78.8594 62.1047 77.5085 60.7539 75.8418 60.7539C74.1751 60.7539 72.8242 62.1047 72.8242 63.7715V75.8418C72.8242 77.5085 74.1751 78.8594 75.8418 78.8594H87.9121C89.5788 78.8594 90.9297 77.5085 90.9297 75.8418C90.9297 74.1751 89.5788 72.8242 87.9121 72.8242Z" fill="#163074"/>
<path d="M27.3574 36.6133H21.3223C19.6555 36.6133 18.3047 37.9641 18.3047 39.6309C18.3047 41.2976 19.6555 42.6484 21.3223 42.6484H27.3574C29.0242 42.6484 30.375 41.2976 30.375 39.6309C30.375 37.9641 29.0242 36.6133 27.3574 36.6133Z" fill="#163074"/>
<path d="M27.3574 48.6836H21.3223C19.6555 48.6836 18.3047 50.0344 18.3047 51.7012C18.3047 53.3679 19.6555 54.7188 21.3223 54.7188H27.3574C29.0242 54.7188 30.375 53.3679 30.375 51.7012C30.375 50.0344 29.0242 48.6836 27.3574 48.6836Z" fill="#163074"/>
<path d="M27.3574 60.7539H21.3223C19.6555 60.7539 18.3047 62.1047 18.3047 63.7715C18.3047 65.4382 19.6555 66.7891 21.3223 66.7891H27.3574C29.0242 66.7891 30.375 65.4382 30.375 63.7715C30.375 62.1047 29.0242 60.7539 27.3574 60.7539Z" fill="#163074"/>
<path d="M45.666 42.6484H51.7012C53.3679 42.6484 54.7188 41.2976 54.7188 39.6309C54.7188 37.9641 53.3679 36.6133 51.7012 36.6133H45.666C43.9993 36.6133 42.6484 37.9641 42.6484 39.6309C42.6484 41.2976 43.9993 42.6484 45.666 42.6484Z" fill="#163074"/>
<path d="M45.666 54.7188H51.7012C53.3679 54.7188 54.7188 53.3679 54.7188 51.7012C54.7188 50.0344 53.3679 48.6836 51.7012 48.6836H45.666C43.9993 48.6836 42.6484 50.0344 42.6484 51.7012C42.6484 53.3679 43.9993 54.7188 45.666 54.7188Z" fill="#163074"/>
<path d="M27.3574 72.8242H21.3223C19.6555 72.8242 18.3047 74.1751 18.3047 75.8418C18.3047 77.5085 19.6555 78.8594 21.3223 78.8594H27.3574C29.0242 78.8594 30.375 77.5085 30.375 75.8418C30.375 74.1751 29.0242 72.8242 27.3574 72.8242Z" fill="#163074"/>
<path d="M69.8066 42.6484H75.8418C77.5085 42.6484 78.8594 41.2976 78.8594 39.6309C78.8594 37.9641 77.5085 36.6133 75.8418 36.6133H69.8066C68.1399 36.6133 66.7891 37.9641 66.7891 39.6309C66.7891 41.2976 68.1399 42.6484 69.8066 42.6484Z" fill="#163074"/>
</svg>
