<svg width="100" height="100" viewBox="0 0 100 100" fill="none" xmlns="http://www.w3.org/2000/svg">
<path d="M99.1768 28.5628L50.8434 0.229361C50.335 -0.0673191 49.71 -0.0772801 49.1951 0.207681L0.861719 26.8745C0.330078 27.1661 0 27.726 0 28.3327V98.3327C0 99.2544 0.74668 99.9993 1.6666 99.9993H10C10.9199 99.9993 11.6666 99.2544 11.6666 98.3327V39.9995H88.3332V98.3329C88.3332 99.2546 89.0781 99.9995 89.9998 99.9995H98.3332C99.2549 99.9995 99.9998 99.2546 99.9998 98.3329V29.9995C100 29.4077 99.6867 28.861 99.1768 28.5628ZM96.6666 96.6661H91.6666V38.3327C91.6666 37.4128 90.9217 36.6661 90 36.6661H10C9.08008 36.6661 8.3334 37.4128 8.3334 38.3327V96.6661H3.3334V29.3161L49.975 3.58268L96.6666 30.9544V96.6661Z" fill="#163074"/>
<path d="M83.3346 76.666H63.3346C62.4129 76.666 61.668 77.4109 61.668 78.3326V98.3326C61.668 99.2543 62.4129 99.9992 63.3346 99.9992H83.3346C84.2562 99.9992 85.0012 99.2543 85.0012 98.3326V78.3326C85.0012 77.4109 84.2562 76.666 83.3346 76.666ZM81.6678 96.666H65.0012V79.9994H81.6678V96.666Z" fill="#163074"/>
<path d="M74.9988 78.333V83.333H71.6654V78.333H68.332V84.9996C68.332 85.9213 69.077 86.6662 69.9986 86.6662H76.6652C77.5869 86.6662 78.3318 85.9213 78.3318 84.9996V78.333H74.9988Z" fill="#163074"/>
<path d="M63.3346 76.666H43.3346C42.4146 76.666 41.668 77.4109 41.668 78.3326V98.3326C41.668 99.2543 42.4146 99.9992 43.3346 99.9992H63.3346C64.2562 99.9992 65.0012 99.2543 65.0012 98.3326V78.3326C65.0012 77.4109 64.2562 76.666 63.3346 76.666ZM61.6678 96.666H45.0012V79.9994H61.6678V96.666Z" fill="#163074"/>
<path d="M54.9988 78.333V83.333H51.6654V78.333H48.332V84.9996C48.332 85.9213 49.0787 86.6662 49.9986 86.6662H56.6652C57.5869 86.6662 58.3318 85.9213 58.3318 84.9996V78.333H54.9988Z" fill="#163074"/>
<path d="M83.3346 56.6665H63.3346C62.4129 56.6665 61.668 57.4114 61.668 58.3331V78.3331C61.668 79.2548 62.4129 79.9997 63.3346 79.9997H83.3346C84.2562 79.9997 85.0012 79.2548 85.0012 78.3331V58.3331C85.0012 57.4114 84.2562 56.6665 83.3346 56.6665ZM81.6678 76.6665H65.0012V59.9999H81.6678V76.6665Z" fill="#163074"/>
<path d="M74.9988 58.333V63.333H71.6654V58.333H68.332V64.9996C68.332 65.9213 69.077 66.6662 69.9986 66.6662H76.6652C77.5869 66.6662 78.3318 65.9213 78.3318 64.9996V58.333H74.9988Z" fill="#163074"/>
<path d="M90 49.9995H10V53.3329H90V49.9995Z" fill="#163074"/>
<path d="M90 43.333H10V46.6664H90V43.333Z" fill="#163074"/>
<path d="M58.3332 23.333H41.6666C40.7467 23.333 40 24.0797 40 24.9996V31.6662C40 32.5861 40.7467 33.3328 41.6666 33.3328H58.3332C59.2549 33.3328 59.9998 32.5861 59.9998 31.6662V24.9996C59.9998 24.0797 59.2549 23.333 58.3332 23.333ZM56.6664 29.9998H43.333V26.6664H56.6664V29.9998Z" fill="#163074"/>
</svg>
